<svg id="Component_8_2" data-name="Component 8 – 2" xmlns="http://www.w3.org/2000/svg" width="100" height="100" viewBox="0 0 100 100">
  <rect id="Rectangle_19" data-name="Rectangle 19" width="100" height="100" fill="#dd463c"/>
  <g id="Group_27" data-name="Group 27" transform="translate(18.124 16.471)">
    <path id="Path_27" data-name="Path 27" d="M842.618,519.115a.683.683,0,0,1-.239-1.067,11.128,11.128,0,0,1,1.043-1,5.067,5.067,0,0,1,2.478-1.258,5.39,5.39,0,0,1,2.157.386c.894.262,1.779.545,2.653.868,1.666.614,3.361,1.171,4.413,2.719a2.8,2.8,0,0,1,.536,1.406,13.8,13.8,0,0,1-.62,2.77c-.156.919-.3,1.839-.44,2.76-.31,2.017-.743,6.531-.751,6.531.894-.176,8.342-2.581,10.377-3.16,1.243-.354,2.485-1,3.8-.872a8.325,8.325,0,0,1,3.534,1.3,46.848,46.848,0,0,1,4.525,3.184c1.763,1.413,4.62,3.3,3.718,5.913a12.753,12.753,0,0,1-2.851,4.49c-.026.023.93,18.882-6.782,33.46-1.573,2.974-4.4,5.365-7.833,5.278-2.206-.055-3.144-2.325-4.385-4.2a54.847,54.847,0,0,0-5.213-6.775,44.211,44.211,0,0,0-3.317-3.369,52.769,52.769,0,0,1,7.1,1.593c1.279.351,2.61,1.007,3.964.758,1.564-.288,2.03-1.573,2.522-2.891a132.6,132.6,0,0,0,3.238-16.555c.271-3.061.329-5.711.483-10.516.033-1.019-1.057-1.535-1.937-1.641a73.748,73.748,0,0,0-11.781.43c.112-.03-7.918,38.421-36.791,42.492a74.73,74.73,0,0,0,25.571-40.52c.007,0-.8.349-3.689,1.251a18.689,18.689,0,0,1-4.681,1.173,8.458,8.458,0,0,1-5.776-2.215q-1.65-1.44-3.264-2.918c-.483-.437-.964-.877-1.439-1.323-.2-.189-5.035-5.709-5.17-5.958a55.094,55.094,0,0,0,24.982,3.714c.594-4.013,1.1-8.193,1.328-12.243C844.154,521.834,843.885,519.731,842.618,519.115Z" transform="translate(-816.22 -515.769)" fill="#fff"/>
  </g>
</svg>
