<?xml version="1.0" encoding="utf-8"?>
<!-- Generator: Adobe Illustrator 25.3.1, SVG Export Plug-In . SVG Version: 6.00 Build 0)  -->
<svg version="1.1" id="Group_148" xmlns="http://www.w3.org/2000/svg" xmlns:xlink="http://www.w3.org/1999/xlink" x="0px" y="0px"
	 viewBox="0 0 280 67.8" style="enable-background:new 0 0 280 67.8;" xml:space="preserve">
<style type="text/css">
	.st0{fill:#FFFFFF;}
	.st1{fill:#F9423A;}
</style>
<g>
	<g>
		<g>
			<g>
				<path class="st0" d="M84.8,36.7V13.1c0-0.6,0.3-0.9,0.9-0.9h3.2c0.6,0,0.9,0.3,0.9,0.9v9.5h13.7v-9.5c0-0.6,0.3-0.9,0.9-0.9h3.2
					c0.6,0,0.9,0.3,0.9,0.9v23.6c0,0.6-0.3,0.9-0.9,0.9h-3.2c-0.6,0-0.9-0.3-0.9-0.9V27H89.8v9.7c0,0.6-0.3,0.9-0.9,0.9h-3.2
					C85.1,37.6,84.8,37.3,84.8,36.7z"/>
			</g>
			<g>
				<path class="st0" d="M140.4,36.9l-1.7-3.7h-14.6l-1.7,3.7c-0.2,0.4-0.6,0.7-1.1,0.7h-3.6c-0.7,0-1-0.4-0.7-1l11.5-23.7
					c0.2-0.4,0.5-0.6,1-0.6h3.8c0.5,0,0.8,0.2,1,0.6l11.4,23.7c0.3,0.6,0,1-0.7,1h-3.6C141,37.6,140.7,37.4,140.4,36.9z M136.9,29.1
					l-5.4-11.7l-5.4,11.7H136.9z"/>
			</g>
			<g>
				<path class="st0" d="M154.4,28.8V21c0-5.4,2.6-8.8,8.5-8.8h8.3c5.6,0,8.2,2.8,8.5,7.6c0,0.6-0.3,0.9-0.9,0.9h-3.2
					c-0.6,0-0.9-0.3-0.9-0.9c-0.2-2.3-1.3-2.9-3.5-2.9H163c-2.5,0-3.5,0.7-3.5,3.8V29c0,3.1,1.1,3.8,3.5,3.8h8.3
					c2.4,0,3.5-0.7,3.5-3.8v-1.2h-6.2c-0.6,0-0.9-0.3-0.9-0.9v-2.6c0-0.6,0.3-0.9,0.9-0.9h10.3c0.6,0,0.9,0.3,0.9,0.9v4.5
					c0,5.4-2.6,8.8-8.5,8.8H163C157,37.6,154.4,34.2,154.4,28.8z"/>
			</g>
			<g>
				<path class="st0" d="M211.8,36.9l-1.7-3.7h-14.6l-1.7,3.7c-0.2,0.4-0.6,0.7-1.1,0.7h-3.6c-0.7,0-1-0.4-0.7-1l11.5-23.7
					c0.2-0.4,0.5-0.6,1-0.6h3.8c0.5,0,0.8,0.2,1,0.6l11.4,23.7c0.3,0.6,0,1-0.7,1h-3.6C212.3,37.6,212,37.4,211.8,36.9z M208.2,29.1
					l-5.4-11.7l-5.4,11.7H208.2z"/>
			</g>
			<g>
				<path class="st0" d="M225.8,36.7V13.1c0-0.6,0.3-0.9,0.9-0.9h3.2c0.5,0,0.8,0.2,1.1,0.5l14,17.4v-17c0-0.6,0.3-0.9,0.9-0.9h3.2
					c0.6,0,0.9,0.3,0.9,0.9v23.6c0,0.6-0.3,0.9-0.9,0.9h-3.2c-0.5,0-0.8-0.2-1.1-0.5l-14-17.3v16.9c0,0.6-0.3,0.9-0.9,0.9h-3.2
					C226.1,37.6,225.8,37.3,225.8,36.7z"/>
			</g>
			<g>
				<path class="st0" d="M258.5,36.7V13.1c0-0.6,0.3-0.9,0.9-0.9h19.7c0.6,0,0.9,0.3,0.9,0.9v3c0,0.6-0.3,0.9-0.9,0.9h-15.6v5.5
					h10.1c0.6,0,0.9,0.3,0.9,0.9V26c0,0.6-0.3,0.9-0.9,0.9h-10.1v5.9h15.6c0.6,0,0.9,0.3,0.9,0.9v3c0,0.6-0.3,0.9-0.9,0.9h-19.7
					C258.8,37.6,258.5,37.3,258.5,36.7z"/>
			</g>
		</g>
	</g>
	<g>
		<path class="st0" d="M84.7,46.1h0.9v4.3c0.7-0.7,2.9-2.8,4.4-4.3H91l-3.7,3.6l3.9,4.8h-1.1l-3.5-4.3l-1.1,1v3.3h-0.9V46.1z"/>
		<path class="st0" d="M98.7,50.5h-4.2v3.3h4.6L99,54.5h-5.4v-8.4h5.3v0.8h-4.4v2.8h4.2V50.5z"/>
		<path class="st0" d="M104.2,54.5v-3.1c0-0.1,0-0.2,0-0.2l-3-5.1h1c0.8,1.4,2.2,3.7,2.5,4.4c0.4-0.7,1.7-3,2.6-4.4h0.9l-3.1,5.1
			c0,0,0,0.1,0,0.2v3.1H104.2z"/>
		<path class="st0" d="M110.5,46.1h0.9v7.6h4.5l-0.1,0.8h-5.2V46.1z"/>
		<path class="st0" d="M123.5,50.5h-4.2v3.3h4.6l-0.1,0.8h-5.4v-8.4h5.3v0.8h-4.4v2.8h4.2V50.5z"/>
		<path class="st0" d="M127.1,52.2c0.2,1.1,1,1.7,2.3,1.7c1.4,0,2-0.7,2-1.6c0-0.9-0.4-1.4-2.2-1.9c-1.9-0.5-2.6-1.1-2.6-2.3
			c0-1.2,0.9-2.2,2.7-2.2c1.9,0,2.7,1.1,2.8,2.2h-0.9c-0.2-0.8-0.7-1.5-2-1.5c-1.1,0-1.8,0.5-1.8,1.4c0,0.9,0.5,1.2,2,1.6
			c2.4,0.6,2.8,1.5,2.8,2.6c0,1.3-1,2.3-2.9,2.3c-2.1,0-2.9-1.2-3.1-2.4H127.1z"/>
		<path class="st0" d="M135.6,52.2c0.2,1.1,1,1.7,2.3,1.7c1.4,0,2-0.7,2-1.6c0-0.9-0.4-1.4-2.2-1.9c-1.9-0.5-2.6-1.1-2.6-2.3
			c0-1.2,0.9-2.2,2.7-2.2c1.9,0,2.7,1.1,2.8,2.2h-0.9c-0.2-0.8-0.7-1.5-2-1.5c-1.1,0-1.8,0.5-1.8,1.4c0,0.9,0.5,1.2,2,1.6
			c2.4,0.6,2.8,1.5,2.8,2.6c0,1.3-1,2.3-2.9,2.3c-2.1,0-2.9-1.2-3.1-2.4H135.6z"/>
		<path class="st0" d="M148.1,46.1h3.1c1.7,0,2.5,0.9,2.5,2.1c0,1-0.6,1.6-1.3,1.8c0.6,0.2,1.5,0.8,1.5,2c0,1.6-1.2,2.4-2.8,2.4
			h-3.1V46.1z M150.9,49.7c1.3,0,1.9-0.5,1.9-1.4c0-0.8-0.6-1.4-1.6-1.4h-2.2v2.8H150.9z M148.9,53.8h2.2c1.1,0,1.9-0.5,1.9-1.7
			c0-1-0.6-1.7-2.2-1.7h-2V53.8z"/>
		<path class="st0" d="M157.9,46.1v8.4h-0.9v-8.4H157.9z"/>
		<path class="st0" d="M161.6,46.1h0.9v4.3c0.7-0.7,2.9-2.8,4.4-4.3h1.1l-3.7,3.6l3.9,4.8H167l-3.5-4.3l-1.1,1v3.3h-0.9V46.1z"/>
		<path class="st0" d="M175.6,50.5h-4.2v3.3h4.6l-0.1,0.8h-5.4v-8.4h5.3v0.8h-4.4v2.8h4.2V50.5z"/>
		<path class="st0" d="M183.2,46.1h0.9v7.6h4.5l-0.1,0.8h-5.2V46.1z"/>
		<path class="st0" d="M198,50.3c0,2.3-1.3,4.4-3.9,4.4c-2.4,0-3.8-1.9-3.8-4.3c0-2.4,1.4-4.3,3.9-4.3C196.5,46,198,47.8,198,50.3z
			 M191.2,50.3c0,1.9,1,3.6,2.9,3.6c2.1,0,2.9-1.7,2.9-3.6c0-1.9-1-3.5-2.9-3.5C192.1,46.8,191.2,48.4,191.2,50.3z"/>
		<path class="st0" d="M207.5,52.2c-0.4,1.4-1.4,2.4-3.3,2.4c-2.5,0-3.7-1.9-3.7-4.3c0-2.3,1.3-4.3,3.7-4.3c1.9,0,3,1.1,3.2,2.5
			h-0.9c-0.3-1-1-1.7-2.4-1.7c-2,0-2.8,1.8-2.8,3.6c0,1.7,0.8,3.6,2.9,3.6c1.3,0,2-0.7,2.3-1.7H207.5z"/>
		<path class="st0" d="M210.5,46.1h0.9v4.3c0.7-0.7,2.9-2.8,4.4-4.3h1.1l-3.7,3.6l3.9,4.8H216l-3.5-4.3l-1.1,1v3.3h-0.9V46.1z"/>
	</g>
</g>
<g>
	<rect x="0" class="st1" width="67.8" height="67.8"/>
</g>
<g>
	<path class="st0" d="M30.5,14.8c-0.3-0.1-0.3-0.5-0.2-0.7c0.2-0.2,0.4-0.4,0.7-0.6c0.4-0.4,1-0.7,1.6-0.8c0.5-0.1,0.9,0.1,1.4,0.2
		c0.6,0.2,1.1,0.3,1.7,0.5c1.1,0.4,2.1,0.7,2.8,1.7c0.2,0.3,0.3,0.6,0.3,0.9c0,0.6-0.3,1.2-0.4,1.8c-0.1,0.6-0.2,1.2-0.3,1.7
		c-0.2,1.3-0.5,4.1-0.5,4.1c0.6-0.1,5.3-1.6,6.6-2c0.8-0.2,1.6-0.6,2.4-0.6c0.8,0.1,1.6,0.4,2.2,0.8c1,0.6,2,1.3,2.9,2
		c1.1,0.9,2.9,2.1,2.4,3.7c-0.3,1-1.1,2.2-1.8,2.8c0,0,0.6,11.9-4.3,21.2c-1,1.9-2.8,3.4-5,3.3c-1.4,0-2-1.5-2.8-2.7
		c-1-1.5-2.1-3-3.3-4.3c-0.7-0.7-1.4-1.5-2.1-2.1c1.6,0.2,3.5,0.7,4.5,1c0.8,0.2,1.7,0.6,2.5,0.5c1-0.2,1.3-1,1.6-1.8
		c0.5-1.2,1.8-8.2,2-10.5c0.2-1.9,0.2-3.6,0.3-6.6c0-0.6-0.7-1-1.2-1c-1-0.1-4.8,0-7.4,0.3c0.1,0-5,24.3-23.3,26.9
		c-0.1,0,12.1-8.7,16.2-25.6c0,0-0.5,0.2-2.3,0.8c-1,0.3-1.9,0.7-3,0.7c-1.3,0.1-2.7-0.5-3.7-1.4c-0.7-0.6-1.4-1.2-2.1-1.8
		c-0.3-0.3-0.6-0.6-0.9-0.8c-0.1-0.1-3.2-3.6-3.3-3.8c0,0,7.2,3.2,15.8,2.3c0.4-2.5,0.7-5.2,0.8-7.7C31.4,16.6,31.3,15.2,30.5,14.8z
		"/>
</g>
</svg>
