<?xml version="1.0" encoding="utf-8"?>
<!-- Generator: Adobe Illustrator 25.3.1, SVG Export Plug-In . SVG Version: 6.00 Build 0)  -->
<svg version="1.1" id="Layer_1" xmlns="http://www.w3.org/2000/svg" xmlns:xlink="http://www.w3.org/1999/xlink" x="0px" y="0px"
	 viewBox="0 0 223.2 145.4" style="enable-background:new 0 0 223.2 145.4;" xml:space="preserve">
<style type="text/css">
	.st0{fill:#DD463C;}
	.st1{fill:#FFFFFF;}
</style>
<g>
	<g>
		<rect x="72.8" class="st0" width="77.5" height="77.5"/>
	</g>
	<g>
		<path class="st1" d="M107.6,17c-0.3-0.1-0.4-0.5-0.2-0.8c0.2-0.3,0.5-0.5,0.8-0.7c0.5-0.4,1.1-0.8,1.8-0.9
			c0.5-0.1,1.1,0.1,1.6,0.3c0.6,0.2,1.3,0.4,1.9,0.6c1.2,0.4,2.4,0.8,3.2,2c0.2,0.3,0.4,0.7,0.4,1c0,0.6-0.3,1.3-0.4,2
			s-0.2,1.3-0.3,2c-0.2,1.5-0.5,4.7-0.5,4.7c0.6-0.1,6-1.9,7.5-2.3c0.9-0.3,1.8-0.7,2.7-0.6c0.9,0.1,1.8,0.5,2.6,0.9
			c1.1,0.7,2.2,1.5,3.3,2.3c1.3,1,3.3,2.4,2.7,4.3c-0.4,1.1-1.3,2.5-2.1,3.2c0,0,0.7,13.6-4.9,24.2c-1.1,2.1-3.2,3.9-5.7,3.8
			c-1.6,0-2.3-1.7-3.2-3c-1.1-1.7-2.4-3.4-3.8-4.9c-0.8-0.8-1.6-1.7-2.4-2.4c1.9,0.2,4,0.8,5.1,1.2c0.9,0.3,1.9,0.7,2.9,0.5
			c1.1-0.2,1.5-1.1,1.8-2.1c0.5-1.4,2.1-9.4,2.3-12c0.2-2.2,0.2-4.1,0.3-7.6c0-0.7-0.8-1.1-1.4-1.2c-1.2-0.1-5.5-0.1-8.5,0.3
			c0.1,0-5.7,27.8-26.6,30.7c-0.1,0,13.8-9.9,18.5-29.3c0,0-0.6,0.3-2.7,0.9c-1.1,0.3-2.2,0.8-3.4,0.8c-1.5,0.1-3-0.6-4.2-1.6
			c-0.8-0.7-1.6-1.4-2.4-2.1c-0.3-0.3-0.7-0.6-1-1c-0.1-0.1-3.6-4.1-3.7-4.3c0,0,8.2,3.7,18.1,2.7c0.4-2.9,0.8-5.9,1-8.8
			C108.7,18.9,108.5,17.4,107.6,17z"/>
	</g>
</g>
<g>
	<g>
		<g>
			<g>
				<path class="st1" d="M0.1,125V98c0-0.7,0.4-1,1-1h3.7c0.7,0,1,0.4,1,1v10.9h15.6V98c0-0.7,0.4-1,1-1h3.7c0.7,0,1,0.4,1,1v27
					c0,0.7-0.4,1-1,1h-3.7c-0.7,0-1-0.4-1-1v-11H5.8v11c0,0.7-0.4,1-1,1H1.1C0.4,126,0.1,125.6,0.1,125z"/>
			</g>
			<g>
				<path class="st1" d="M63.7,125.2l-1.9-4.2H45.1l-2,4.2c-0.2,0.5-0.7,0.8-1.2,0.8h-4.2c-0.8,0-1.1-0.5-0.8-1.2l13.1-27.1
					c0.2-0.5,0.6-0.7,1.2-0.7h4.4c0.6,0,0.9,0.2,1.2,0.7l13.1,27.1c0.3,0.7,0,1.2-0.8,1.2h-4.2C64.3,126,63.9,125.8,63.7,125.2z
					 M59.6,116.3l-6.1-13.4l-6.2,13.4H59.6z"/>
			</g>
			<g>
				<path class="st1" d="M79.7,116v-9c0-6.2,2.9-10,9.8-10h9.5c6.4,0,9.4,3.2,9.7,8.7c0,0.7-0.3,1.1-1,1.1h-3.7c-0.7,0-1-0.4-1-1
					c-0.2-2.7-1.4-3.3-4-3.3h-9.5c-2.8,0-4,0.8-4,4.4v9.4c0,3.5,1.3,4.3,4,4.3h9.5c2.8,0,4-0.8,4-4.3v-1.4h-7.1c-0.7,0-1-0.4-1-1v-3
					c0-0.7,0.4-1,1-1h11.8c0.7,0,1,0.4,1,1v5.2c0,6.1-2.9,10-9.8,10h-9.5C82.6,126,79.7,122.1,79.7,116z"/>
			</g>
			<g>
				<path class="st1" d="M145.2,125.2l-1.9-4.2h-16.6l-2,4.2c-0.2,0.5-0.7,0.8-1.2,0.8h-4.2c-0.8,0-1.1-0.5-0.8-1.2l13.1-27.1
					c0.2-0.5,0.6-0.7,1.2-0.7h4.4c0.6,0,0.9,0.2,1.2,0.7l13.1,27.1c0.3,0.7,0,1.2-0.8,1.2h-4.2C145.8,126,145.4,125.8,145.2,125.2z
					 M141.1,116.3l-6.1-13.4l-6.2,13.4H141.1z"/>
			</g>
			<g>
				<path class="st1" d="M161.2,125V98c0-0.7,0.4-1,1-1h3.7c0.5,0,0.9,0.2,1.3,0.6l16,19.8V98c0-0.7,0.4-1,1-1h3.7c0.7,0,1,0.4,1,1
					v27c0,0.7-0.4,1-1,1h-3.7c-0.5,0-0.9-0.2-1.3-0.6l-16-19.7V125c0,0.7-0.4,1-1,1h-3.7C161.6,126,161.2,125.6,161.2,125z"/>
			</g>
			<g>
				<path class="st1" d="M198.6,125V98c0-0.7,0.4-1,1-1h22.5c0.7,0,1,0.4,1,1v3.4c0,0.7-0.4,1-1,1h-17.9v6.3h11.6c0.7,0,1,0.4,1,1v3
					c0,0.7-0.4,1-1,1h-11.6v6.7h17.9c0.7,0,1,0.4,1,1v3.4c0,0.7-0.4,1-1,1h-22.5C198.9,126,198.6,125.6,198.6,125z"/>
			</g>
		</g>
	</g>
	<g>
		<path class="st1" d="M36,135.7h1v4.9c0.7-0.7,3.4-3.2,5-4.9h1.3l-4.2,4.1l4.5,5.5h-1.2l-3.9-4.9l-1.3,1.2v3.7h-1V135.7z"/>
		<path class="st1" d="M52,140.7h-4.8v3.8h5.3l-0.1,0.9h-6.2v-9.6h6.1v0.9h-5.1v3.2H52V140.7z"/>
		<path class="st1" d="M58.2,145.4v-3.6c0-0.1,0-0.2-0.1-0.2l-3.4-5.8h1.1c0.9,1.6,2.5,4.3,2.9,5c0.4-0.8,2-3.4,3-5h1.1l-3.5,5.8
			c0,0.1,0,0.1,0,0.2v3.5H58.2z"/>
		<path class="st1" d="M65.5,135.7h1v8.7h5.1l-0.2,0.9h-5.9V135.7z"/>
		<path class="st1" d="M80.3,140.7h-4.8v3.8h5.3l-0.1,0.9h-6.2v-9.6h6.1v0.9h-5.1v3.2h4.8V140.7z"/>
		<path class="st1" d="M84.4,142.7c0.3,1.2,1.1,1.9,2.6,1.9c1.6,0,2.3-0.8,2.3-1.8c0-1-0.5-1.6-2.5-2.1c-2.1-0.5-3-1.2-3-2.6
			c0-1.3,1-2.5,3.1-2.5c2.2,0,3.1,1.3,3.2,2.5h-1c-0.2-0.9-0.8-1.7-2.3-1.7c-1.3,0-2,0.6-2,1.6c0,1,0.6,1.4,2.3,1.8
			c2.7,0.7,3.2,1.7,3.2,2.9c0,1.5-1.1,2.7-3.4,2.7c-2.4,0-3.4-1.4-3.5-2.7H84.4z"/>
		<path class="st1" d="M94.1,142.7c0.3,1.2,1.1,1.9,2.6,1.9c1.6,0,2.3-0.8,2.3-1.8c0-1-0.5-1.6-2.5-2.1c-2.1-0.5-3-1.2-3-2.6
			c0-1.3,1-2.5,3.1-2.5c2.2,0,3.1,1.3,3.2,2.5h-1c-0.2-0.9-0.8-1.7-2.3-1.7c-1.3,0-2,0.6-2,1.6c0,1,0.6,1.4,2.3,1.8
			c2.7,0.7,3.2,1.7,3.2,2.9c0,1.5-1.1,2.7-3.4,2.7c-2.4,0-3.4-1.4-3.5-2.7H94.1z"/>
		<path class="st1" d="M108.4,135.7h3.5c1.9,0,2.9,1,2.9,2.4c0,1.1-0.7,1.9-1.4,2.1c0.7,0.2,1.8,0.9,1.8,2.3c0,1.9-1.4,2.8-3.2,2.8
			h-3.6V135.7z M111.7,139.8c1.5,0,2.1-0.6,2.1-1.6c0-0.9-0.6-1.6-1.9-1.6h-2.5v3.2H111.7z M109.4,144.5h2.6c1.2,0,2.2-0.6,2.2-1.9
			c0-1.1-0.7-1.9-2.5-1.9h-2.2V144.5z"/>
		<path class="st1" d="M119.6,135.7v9.6h-1v-9.6H119.6z"/>
		<path class="st1" d="M123.8,135.7h1v4.9c0.7-0.7,3.4-3.2,5-4.9h1.3l-4.2,4.1l4.5,5.5h-1.2l-3.9-4.9l-1.3,1.2v3.7h-1V135.7z"/>
		<path class="st1" d="M139.8,140.7H135v3.8h5.3l-0.1,0.9H134v-9.6h6.1v0.9H135v3.2h4.8V140.7z"/>
		<path class="st1" d="M148.5,135.7h1v8.7h5.1l-0.2,0.9h-5.9V135.7z"/>
		<path class="st1" d="M165.4,140.5c0,2.6-1.4,5-4.4,5c-2.8,0-4.3-2.2-4.3-4.9c0-2.7,1.6-4.9,4.4-4.9
			C163.8,135.6,165.4,137.7,165.4,140.5z M157.7,140.5c0,2.1,1.2,4.1,3.3,4.1c2.4,0,3.3-1.9,3.3-4.1c0-2.2-1.1-4-3.3-4
			C158.7,136.5,157.7,138.4,157.7,140.5z"/>
		<path class="st1" d="M176.3,142.7c-0.5,1.6-1.6,2.8-3.7,2.8c-2.8,0-4.3-2.2-4.3-4.9c0-2.6,1.4-5,4.3-5c2.2,0,3.4,1.2,3.7,2.8h-1
			c-0.4-1.2-1.2-2-2.8-2c-2.3,0-3.2,2.1-3.2,4.1c0,2,0.9,4.1,3.3,4.1c1.5,0,2.3-0.8,2.7-1.9H176.3z"/>
		<path class="st1" d="M179.8,135.7h1v4.9c0.7-0.7,3.4-3.2,5-4.9h1.3l-4.2,4.1l4.5,5.5H186l-3.9-4.9l-1.3,1.2v3.7h-1V135.7z"/>
	</g>
</g>
</svg>
