<svg id="Group_11" data-name="Group 11" xmlns="http://www.w3.org/2000/svg" viewBox="0 0 67.84 67.84"><defs><style>.cls-1{fill:#f9423a;}.cls-2{fill:#fff;}</style></defs><rect class="cls-1" width="67.84" height="67.84"/><path class="cls-2" d="M30.45,14.83a.43.43,0,0,1-.15-.67,7.82,7.82,0,0,1,.66-.63,3.19,3.19,0,0,1,1.57-.8,3.38,3.38,0,0,1,1.36.25q.86.24,1.68.54a5.2,5.2,0,0,1,2.79,1.72,1.84,1.84,0,0,1,.34.89,9.17,9.17,0,0,1-.39,1.75c-.1.58-.19,1.17-.28,1.75-.2,1.27-.47,4.13-.48,4.13.57-.11,5.28-1.63,6.56-2a6.81,6.81,0,0,1,2.41-.55,5.29,5.29,0,0,1,2.23.82,30.07,30.07,0,0,1,2.86,2c1.12.89,2.92,2.08,2.35,3.73a7.93,7.93,0,0,1-1.8,2.84s.59,11.94-4.29,21.16a5.68,5.68,0,0,1-4.95,3.34c-1.39,0-2-1.47-2.77-2.66a34.54,34.54,0,0,0-3.3-4.28,24.88,24.88,0,0,0-2.1-2.13,33.34,33.34,0,0,1,4.49,1,5.62,5.62,0,0,0,2.51.48c1-.18,1.28-1,1.6-1.82a84.31,84.31,0,0,0,2-10.47c.18-1.94.21-3.61.31-6.65,0-.64-.67-1-1.23-1a47.2,47.2,0,0,0-7.44.27c.07,0-5,24.29-23.27,26.87A47.28,47.28,0,0,0,29.93,29.07s-.51.22-2.33.79a11.27,11.27,0,0,1-3,.74A5.35,5.35,0,0,1,21,29.2c-.7-.6-1.38-1.22-2.07-1.84L18,26.52c-.12-.12-3.18-3.61-3.26-3.77A34.73,34.73,0,0,0,30.54,25.1c.38-2.53.7-5.18.84-7.74C31.43,16.55,31.26,15.22,30.45,14.83Z"/></svg>