<?xml version="1.0" encoding="utf-8"?>
<!-- Generator: Adobe Illustrator 26.0.2, SVG Export Plug-In . SVG Version: 6.00 Build 0)  -->
<svg version="1.1" id="Livello_1" xmlns="http://www.w3.org/2000/svg" xmlns:xlink="http://www.w3.org/1999/xlink" x="0px" y="0px"
	 viewBox="0 0 1093.4 783.8" style="enable-background:new 0 0 1093.4 783.8;" xml:space="preserve">
<style type="text/css">
	.st0{fill:#B3B3B3;}
	.st1{fill:#DEDEDE;}
	.st2{fill:#FFFFFF;}
	.st3{enable-background:new    ;}
	.st4{fill:#2A2C2E;}
	.st5{fill:#DD463C;}
</style>
<g>
	<circle class="st0" cx="920.5" cy="387.5" r="25.5"/>
</g>
<g>
	<circle class="st1" cx="917.8" cy="657.2" r="59.5"/>
</g>
<g>
	<path class="st0" d="M59.1,82.7L59.1,82.7c14.1,0,25.5,11.4,25.5,25.5v583.9c0,14.1-11.4,25.5-25.5,25.5l0,0
		c-14.1,0-25.5-11.4-25.5-25.5V108.2C33.6,94.2,45,82.7,59.1,82.7z"/>
</g>
<g>
	<circle class="st1" cx="60.5" cy="657.7" r="59.5"/>
</g>
<g>
	<circle class="st2" cx="917.9" cy="656.7" r="36.8"/>
</g>
<g class="st3">
	<path d="M445.4,20.4V7.1c-0.8,0.6-2.4,1.2-3.3,1.4V6.7c1.2-0.3,2.8-1.2,3.8-2.3h1.6v15.9h-2.1V20.4z"/>
</g>
<g class="st3">
	<path d="M451.2,20.4v-0.1c0-2.3,1.5-4.7,4.8-7.1c2.5-1.9,3.2-2.5,3.2-4.3c0-1.6-0.8-2.8-2.7-2.8c-1.9,0-2.8,1-3.1,2.9h-2.1
		c0.3-2.7,2-4.7,5.2-4.7c3.6,0,4.9,2.3,4.9,4.5c0,2.4-1,3.3-3.9,5.6c-2.2,1.7-3.3,2.9-3.7,4.2h8.3l-0.3,1.8
		C461.8,20.4,451.2,20.4,451.2,20.4z"/>
</g>
<g class="st3">
	<path d="M467.1,20.4V7.1c-0.8,0.6-2.4,1.2-3.3,1.4V6.7c1.2-0.3,2.8-1.2,3.8-2.3h1.6v15.9h-2.1V20.4z"/>
	<path d="M479.5,11.3c0-1.1,0-2.2,0-3.1h2c0,0.4,0.1,1.2,0.1,1.9c0.6-1.1,1.6-2.2,3.5-2.2c1.7,0,2.9,0.9,3.4,2.2
		c0.6-1.2,1.8-2.2,3.9-2.2c2,0,3.8,1.2,3.8,4.5v8h-2.1v-7.8c0-1.4-0.5-2.9-2.4-2.9c-2,0-2.9,1.5-2.9,3.6v7h-2.1v-7.7
		c0-1.6-0.4-3-2.4-3c-1.9,0-2.9,1.6-2.9,3.9v6.7h-2.1v-8.9H479.5z"/>
	<path d="M499.8,11.3c0-1.1,0-2.2,0-3.1h2c0,0.4,0.1,1.2,0.1,1.9c0.6-1.1,1.6-2.2,3.5-2.2c1.7,0,2.9,0.9,3.4,2.2
		c0.6-1.2,1.8-2.2,3.9-2.2c2,0,3.8,1.2,3.8,4.5v8h-2.1v-7.8c0-1.4-0.5-2.9-2.4-2.9c-2,0-2.9,1.5-2.9,3.6v7H507v-7.7
		c0-1.6-0.4-3-2.4-3c-1.9,0-2.9,1.6-2.9,3.9v6.7h-2.1v-8.9H499.8z"/>
</g>
<g class="st3">
	<path d="M445.4,777.3V764c-0.8,0.6-2.4,1.2-3.3,1.4v-1.7c1.2-0.3,2.8-1.2,3.8-2.3h1.6v15.9L445.4,777.3L445.4,777.3z"/>
</g>
<g class="st3">
	<path d="M458.3,777.3v-4.1h-7.4v-1.9l7.2-9.8h2.3v9.9h2l-0.2,1.8h-1.8v4.1H458.3z M458.3,767.5c0-1.2,0-2.8,0-3.8
		c-0.6,1.2-3.7,5.4-5.4,7.8h5.4V767.5z"/>
	<path d="M464.1,777.3L464.1,777.3c0-2.4,1.5-4.8,4.8-7.2c2.5-1.9,3.2-2.5,3.2-4.3c0-1.6-0.8-2.8-2.7-2.8c-1.9,0-2.8,1-3.1,2.9h-2.1
		c0.3-2.7,2-4.7,5.2-4.7c3.6,0,4.9,2.3,4.9,4.5c0,2.4-1,3.3-3.9,5.6c-2.2,1.7-3.3,2.9-3.7,4.2h8.3l-0.3,1.8L464.1,777.3L464.1,777.3
		z"/>
	<path d="M483.5,768.3c0-1.1,0-2.2,0-3.1h2c0,0.4,0.1,1.2,0.1,1.9c0.6-1.1,1.6-2.2,3.5-2.2c1.7,0,2.9,0.9,3.4,2.2
		c0.6-1.2,1.8-2.2,3.9-2.2c2,0,3.8,1.2,3.8,4.5v8h-2.1v-7.8c0-1.4-0.5-2.9-2.4-2.9c-2,0-2.9,1.5-2.9,3.6v7h-2.1v-7.7
		c0-1.6-0.4-3-2.4-3c-1.9,0-2.9,1.6-2.9,3.9v6.7h-2.1v-8.9H483.5z"/>
	<path d="M503.8,768.3c0-1.1,0-2.2,0-3.1h2c0,0.4,0.1,1.2,0.1,1.9c0.6-1.1,1.6-2.2,3.5-2.2c1.7,0,2.9,0.9,3.4,2.2
		c0.6-1.2,1.8-2.2,3.9-2.2c2,0,3.8,1.2,3.8,4.5v8h-2.1v-7.8c0-1.4-0.5-2.9-2.4-2.9c-2,0-2.9,1.5-2.9,3.6v7H511v-7.7
		c0-1.6-0.4-3-2.4-3c-1.9,0-2.9,1.6-2.9,3.9v6.7h-2.1v-8.9H503.8z"/>
</g>
<g class="st3">
	<path d="M732.5,670.3v-4.1h-7.4v-1.9l7.2-9.8h2.3v9.9h2l-0.2,1.8h-1.8v4.1H732.5z M732.5,660.5c0-1.2,0-2.8,0-3.8
		c-0.6,1.2-3.7,5.4-5.4,7.8h5.4V660.5z"/>
	<path d="M738.2,670.3L738.2,670.3c0-2.4,1.5-4.8,4.8-7.2c2.5-1.9,3.2-2.5,3.2-4.3c0-1.6-0.8-2.8-2.7-2.8s-2.8,1-3.1,2.9h-2.1
		c0.3-2.7,2-4.7,5.2-4.7c3.6,0,4.9,2.3,4.9,4.5c0,2.4-1,3.3-3.9,5.6c-2.2,1.7-3.3,2.9-3.7,4.2h8.3l-0.3,1.8L738.2,670.3L738.2,670.3
		z"/>
	<path d="M757.6,661.3c0-1.1,0-2.2,0-3.1h2c0,0.4,0.1,1.2,0.1,1.9c0.6-1.1,1.6-2.2,3.5-2.2c1.7,0,2.9,0.9,3.4,2.2
		c0.6-1.2,1.8-2.2,3.9-2.2c2,0,3.8,1.2,3.8,4.5v8h-2.1v-7.8c0-1.4-0.5-2.9-2.4-2.9c-2,0-2.9,1.5-2.9,3.6v7h-2.1v-7.7
		c0-1.6-0.4-3-2.4-3c-1.9,0-2.9,1.6-2.9,3.9v6.7h-2.1v-8.9H757.6z"/>
	<path d="M777.9,661.3c0-1.1,0-2.2,0-3.1h2c0,0.4,0.1,1.2,0.1,1.9c0.6-1.1,1.6-2.2,3.5-2.2c1.7,0,2.9,0.9,3.4,2.2
		c0.6-1.2,1.8-2.2,3.9-2.2c2,0,3.8,1.2,3.8,4.5v8h-2.1v-7.8c0-1.4-0.5-2.9-2.4-2.9c-2,0-2.9,1.5-2.9,3.6v7h-2.1v-7.7
		c0-1.6-0.4-3-2.4-3c-1.9,0-2.9,1.6-2.9,3.9v6.7h-2.1v-8.9H777.9z"/>
</g>
<g>
	<polygon class="st0" points="659.6,253.6 659.6,669 608.6,669 608.6,656.1 622.7,641.9 622.7,623.5 608.6,613.6 608.6,253.6 
		607.6,237.8 604.5,222.4 599.4,207.5 592.4,193.3 583.7,180.2 573.3,168.4 561.4,158 548.3,149.2 534.2,142.3 519.3,137.2 
		503.8,134.1 488.1,133.1 472.4,134.1 456.9,137.2 442,142.3 427.9,149.2 414.7,158 402.9,168.4 392.5,180.2 383.8,193.3 
		376.8,207.5 371.7,222.4 368.7,237.8 367.6,253.6 367.6,613.6 353.5,623.5 353.5,641.9 367.6,656.1 367.6,669 316.6,669 
		316.6,253.6 317.6,235.1 320.6,216.7 325.6,198.9 332.5,181.6 341.2,165.2 351.6,149.8 363.6,135.6 377,122.9 391.9,111.6 
		407.8,102.1 424.6,94.3 442.2,88.4 460.4,84.3 478.8,82.3 497.4,82.3 515.9,84.3 534,88.4 551.6,94.3 568.5,102.1 584.3,111.6 
		599.1,122.9 612.6,135.6 624.7,149.8 635.1,165.2 643.7,181.6 650.6,198.9 655.6,216.7 658.6,235.1 	"/>
</g>
<g>
	<polygon class="st0" points="659.6,669 646.5,691.5 621.6,691.5 608.6,669 	"/>
</g>
<g>
	<rect x="621.6" y="691.5" class="st0" width="25" height="26.9"/>
</g>
<g>
	<polygon class="st0" points="367.6,669 354.6,691.5 329.6,691.5 316.6,669 	"/>
</g>
<g>
	<rect x="329.6" y="691.5" class="st0" width="25" height="26.9"/>
</g>
<g>
	<rect x="316.9" y="37.7" width="342" height="1"/>
</g>
<g>
	<rect x="316.4" y="35" width="1" height="6.5"/>
</g>
<g>
	<rect x="658.4" y="35" width="1" height="6.5"/>
</g>
<g>
	<rect x="287.2" y="743.7" width="401.5" height="1"/>
</g>
<g>
	<rect x="286.7" y="741" width="1" height="6.5"/>
</g>
<g>
	<rect x="688.2" y="741" width="1" height="6.5"/>
</g>
<g>
	<path class="st1" d="M607.9,604.1c0-0.2,0-0.4,0-0.6H368.4c0,0.2,0,0.4,0,0.6"/>
</g>
<g>
	<path class="st1" d="M316,604.1c0-0.2,0-0.4,0-0.6h-29.7v119.1h402.5V603.5h-28.5c0,0.2,0,0.4,0,0.6"/>
</g>
<g>
	<rect x="710.4" y="604" width="1" height="118.1"/>
</g>
<g>
	<rect x="707.7" y="603.5" width="6.5" height="1"/>
</g>
<g>
	<rect x="707.7" y="721.6" width="6.5" height="1"/>
</g>
<g class="st3">
	<path d="M30.1,777.6v-4.1h-7.4v-1.9l7.2-9.8h2.3v9.9h2l-0.2,1.8h-1.8v4.1H30.1z M30.1,767.7c0-1.2,0-2.8,0-3.8
		c-0.6,1.2-3.7,5.4-5.4,7.8h5.4V767.7z"/>
	<path d="M35.8,777.6L35.8,777.6c0-2.4,1.5-4.8,4.8-7.2c2.5-1.9,3.2-2.5,3.2-4.3c0-1.6-0.8-2.8-2.7-2.8s-2.8,1-3.1,2.9h-2.1
		c0.3-2.7,2-4.7,5.2-4.7c3.6,0,4.9,2.3,4.9,4.5c0,2.4-1,3.3-3.9,5.6c-2.2,1.7-3.3,2.9-3.7,4.2h8.3l-0.3,1.8L35.8,777.6L35.8,777.6z"
		/>
	<path d="M55.2,768.5c0-1.1,0-2.2,0-3.1h2c0,0.4,0.1,1.2,0.1,1.9c0.6-1.1,1.6-2.2,3.5-2.2c1.7,0,2.9,0.9,3.4,2.2
		c0.6-1.2,1.8-2.2,3.9-2.2c2,0,3.8,1.2,3.8,4.5v8h-2.1v-7.8c0-1.4-0.5-2.9-2.4-2.9c-2,0-2.9,1.5-2.9,3.6v7h-2.1v-7.7
		c0-1.6-0.4-3-2.4-3c-1.9,0-2.9,1.6-2.9,3.9v6.7H55v-8.9H55.2z"/>
	<path d="M75.5,768.5c0-1.1,0-2.2,0-3.1h2c0,0.4,0.1,1.2,0.1,1.9c0.6-1.1,1.6-2.2,3.5-2.2c1.7,0,2.9,0.9,3.4,2.2
		c0.6-1.2,1.8-2.2,3.9-2.2c2,0,3.8,1.2,3.8,4.5v8h-2.1v-7.8c0-1.4-0.5-2.9-2.4-2.9c-2,0-2.9,1.5-2.9,3.6v7h-2.1v-7.7
		c0-1.6-0.4-3-2.4-3c-1.9,0-2.9,1.6-2.9,3.9v6.7h-2.1v-8.9H75.5z"/>
</g>
<g>
	<rect x="1.5" y="743.8" width="118.1" height="1"/>
</g>
<g>
	<rect x="119.1" y="741" width="1" height="6.5"/>
</g>
<g>
	<rect x="1" y="741" width="1" height="6.5"/>
</g>
<g class="st3">
	<path d="M892.7,569.8v-4.1h-7.4v-1.9l7.2-9.8h2.3v9.9h2l-0.2,1.8h-1.8v4.1H892.7z M892.7,560c0-1.2,0-2.8,0-3.8
		c-0.6,1.2-3.7,5.4-5.4,7.8h5.4V560z"/>
	<path d="M898.5,569.8L898.5,569.8c0-2.4,1.5-4.8,4.8-7.2c2.5-1.9,3.2-2.5,3.2-4.3c0-1.6-0.8-2.8-2.7-2.8s-2.8,1-3.1,2.9h-2.1
		c0.3-2.7,2-4.7,5.2-4.7c3.6,0,4.9,2.3,4.9,4.5c0,2.4-1,3.3-3.9,5.6c-2.2,1.7-3.3,2.9-3.7,4.2h8.3l-0.3,1.8L898.5,569.8L898.5,569.8
		z"/>
	<path d="M917.9,560.8c0-1.1,0-2.2,0-3.1h2c0,0.4,0.1,1.2,0.1,1.9c0.6-1.1,1.6-2.2,3.5-2.2c1.7,0,2.9,0.9,3.4,2.2
		c0.6-1.2,1.8-2.2,3.9-2.2c2,0,3.8,1.2,3.8,4.5v8h-2.1v-7.8c0-1.4-0.5-2.9-2.4-2.9c-2,0-2.9,1.5-2.9,3.6v7h-2.1v-7.7
		c0-1.6-0.4-3-2.4-3c-1.9,0-2.9,1.6-2.9,3.9v6.7h-2.1v-8.9H917.9z"/>
	<path d="M938.2,560.8c0-1.1,0-2.2,0-3.1h2c0,0.4,0.1,1.2,0.1,1.9c0.6-1.1,1.6-2.2,3.5-2.2c1.7,0,2.9,0.9,3.4,2.2
		c0.6-1.2,1.8-2.2,3.9-2.2c2,0,3.8,1.2,3.8,4.5v8h-2.1v-7.8c0-1.4-0.5-2.9-2.4-2.9c-2,0-2.9,1.5-2.9,3.6v7h-2.1v-7.7
		c0-1.6-0.4-3-2.4-3c-1.9,0-2.9,1.6-2.9,3.9v6.7H938v-8.9H938.2z"/>
</g>
<g class="st3">
	<path d="M997.7,673.4c0-2.2,1.5-3.5,2.9-4.1c-1.4-0.7-2.2-1.8-2.2-3.3c0-2.4,1.7-4.2,5-4.2c3,0,4.8,1.8,4.8,4.2
		c0,1.7-0.9,2.8-2.2,3.3c1.5,0.5,2.8,2,2.8,4.1c0,3-2.4,4.8-5.6,4.8C1000,678.1,997.7,676.3,997.7,673.4z M1006.6,673.3
		c0-2-1.3-3-3.4-3c-2.3,0-3.4,1.3-3.4,3c0,1.8,1.2,3.1,3.4,3.1C1005.2,676.4,1006.6,675.3,1006.6,673.3z M1000.4,666
		c0,1.3,0.9,2.4,2.9,2.4c1.9,0,2.7-0.9,2.7-2.4c0-1.4-0.9-2.5-2.8-2.5C1001.2,663.5,1000.4,664.5,1000.4,666z"/>
	<path d="M1017.7,668.8c0-1.1,0-2.2,0-3.1h2c0,0.4,0.1,1.2,0.1,1.9c0.6-1.1,1.6-2.2,3.5-2.2c1.7,0,2.9,0.9,3.4,2.2
		c0.6-1.2,1.8-2.2,3.9-2.2c2,0,3.8,1.2,3.8,4.5v8h-2.1v-7.8c0-1.4-0.5-2.9-2.4-2.9c-2,0-2.9,1.5-2.9,3.6v7h-2.1v-7.7
		c0-1.6-0.4-3-2.4-3c-1.9,0-2.9,1.6-2.9,3.9v6.7h-2.1v-8.9H1017.7z"/>
	<path d="M1038,668.8c0-1.1,0-2.2,0-3.1h2c0,0.4,0.1,1.2,0.1,1.9c0.6-1.1,1.6-2.2,3.5-2.2c1.7,0,2.9,0.9,3.4,2.2
		c0.6-1.2,1.8-2.2,3.9-2.2c2,0,3.8,1.2,3.8,4.5v8h-2.1v-7.8c0-1.4-0.5-2.9-2.4-2.9c-2,0-2.9,1.5-2.9,3.6v7h-2.1v-7.7
		c0-1.6-0.4-3-2.4-3c-1.9,0-2.9,1.6-2.9,3.9v6.7h-2.1v-8.9H1038z"/>
</g>
<g class="st3">
	<path d="M875.1,292.2h6c4.7,0,7.9,3.2,7.9,8.2c0,4.9-3.1,8.5-7.9,8.5h-5.9L875.1,292.2L875.1,292.2z M877.3,307h3.5
		c3.9,0,5.8-2.8,5.8-6.6c0-3.3-1.7-6.3-5.8-6.3h-3.5V307z"/>
</g>
<g class="st3">
	<path d="M892.1,293.9v-2.6h2.1v2.6H892.1z M892.1,296.7h2.1v12.2h-2.1V296.7z"/>
</g>
<g class="st3">
	<path d="M906.7,306.2c0,1.1,0.1,2.3,0.2,2.7h-2c-0.1-0.3-0.2-0.8-0.2-1.6c-0.4,0.8-1.4,1.9-3.8,1.9c-2.9,0-4.1-1.9-4.1-3.7
		c0-2.7,2.1-4,5.8-4h2.1v-1c0-1.1-0.3-2.4-2.6-2.4c-2,0-2.4,1-2.6,1.9h-2c0.2-1.7,1.2-3.6,4.7-3.6c3,0,4.6,1.2,4.6,4v5.8H906.7z
		 M904.7,302.9h-2c-2.4,0-3.7,0.7-3.7,2.4c0,1.3,0.9,2.2,2.4,2.2c2.9,0,3.3-2,3.3-4.2V302.9z"/>
	<path d="M910.4,299.8c0-1.1,0-2.2,0-3.1h2c0,0.4,0.1,1.2,0.1,1.9c0.6-1.1,1.6-2.2,3.5-2.2c1.7,0,2.9,0.9,3.4,2.2
		c0.6-1.2,1.8-2.2,3.9-2.2c2,0,3.8,1.2,3.8,4.5v8H925v-7.8c0-1.4-0.5-2.9-2.4-2.9c-2,0-2.9,1.5-2.9,3.6v7h-2.1v-7.7
		c0-1.6-0.4-3-2.4-3c-1.9,0-2.9,1.6-2.9,3.9v6.7h-2.1v-8.9H910.4z"/>
</g>
<g class="st3">
	<path d="M931.9,303.2c0,2.5,1.3,4.2,3.3,4.2c1.9,0,2.5-1,2.9-1.9h2.1c-0.5,1.6-1.8,3.6-5.1,3.6c-3.8,0-5.4-3.1-5.4-6.2
		c0-3.6,1.8-6.5,5.5-6.5c3.9,0,5.2,3.1,5.2,5.7c0,0.4,0,0.7,0,1L931.9,303.2L931.9,303.2z M938.4,301.7c0-2-1-3.6-3.1-3.6
		c-2.2,0-3.1,1.5-3.3,3.6H938.4z"/>
</g>
<g class="st3">
	<path d="M952.2,303.2c0,2.5,1.3,4.2,3.3,4.2c1.9,0,2.5-1,2.9-1.9h2.1c-0.5,1.6-1.8,3.6-5.1,3.6c-3.8,0-5.4-3.1-5.4-6.2
		c0-3.6,1.8-6.5,5.5-6.5c3.9,0,5.2,3.1,5.2,5.7c0,0.4,0,0.7,0,1L952.2,303.2L952.2,303.2z M958.7,301.7c0-2-1-3.6-3.1-3.6
		c-2.2,0-3.1,1.5-3.3,3.6H958.7z"/>
</g>
<g class="st3">
	<path d="M941.8,296.7h2.1v-3.6h2.1v3.6h2.7v1.7H946v7.1c0,1.2,0.3,1.8,1.4,1.8c0.3,0,0.7,0,1.1-0.1v1.6c-0.5,0.2-1.2,0.2-1.8,0.2
		c-1.9,0-2.7-1-2.7-3v-7.6h-2.1v-1.7H941.8z"/>
	<path d="M963.1,300c0-1.7,0-2.7,0-3.3h2.1c0,0.3,0.1,1.3,0.1,2.5c0.6-1.6,2.1-2.7,4.1-2.8v2.1c-2.5,0.1-4.1,1.4-4.1,4.5v5.9h-2.1
		L963.1,300L963.1,300z"/>
</g>
<g class="st3">
	<path d="M875.1,524.5h6c4.7,0,7.9,3.2,7.9,8.2c0,4.9-3.1,8.5-7.9,8.5h-5.9L875.1,524.5L875.1,524.5z M877.3,539.3h3.5
		c3.9,0,5.8-2.8,5.8-6.6c0-3.3-1.7-6.3-5.8-6.3h-3.5V539.3z"/>
</g>
<g class="st3">
	<path d="M892.1,526.2v-2.6h2.1v2.6H892.1z M892.1,529h2.1v12.2h-2.1V529z"/>
</g>
<g class="st3">
	<path d="M906.7,538.5c0,1.1,0.1,2.3,0.2,2.7h-2c-0.1-0.3-0.2-0.8-0.2-1.6c-0.4,0.8-1.4,1.9-3.8,1.9c-2.9,0-4.1-1.9-4.1-3.7
		c0-2.7,2.1-4,5.8-4h2.1v-1c0-1.1-0.3-2.4-2.6-2.4c-2,0-2.4,1-2.6,1.9h-2c0.2-1.7,1.2-3.6,4.7-3.6c3,0,4.6,1.2,4.6,4v5.8H906.7z
		 M904.7,535.2h-2c-2.4,0-3.7,0.7-3.7,2.4c0,1.3,0.9,2.2,2.4,2.2c2.9,0,3.3-2,3.3-4.2V535.2z"/>
	<path d="M910.4,532.1c0-1.1,0-2.2,0-3.1h2c0,0.4,0.1,1.2,0.1,1.9c0.6-1.1,1.6-2.2,3.5-2.2c1.7,0,2.9,0.9,3.4,2.2
		c0.6-1.2,1.8-2.2,3.9-2.2c2,0,3.8,1.2,3.8,4.5v8H925v-7.8c0-1.4-0.5-2.9-2.4-2.9c-2,0-2.9,1.5-2.9,3.6v7h-2.1v-7.7
		c0-1.6-0.4-3-2.4-3c-1.9,0-2.9,1.6-2.9,3.9v6.7h-2.1v-8.9H910.4z"/>
</g>
<g class="st3">
	<path d="M931.9,535.5c0,2.5,1.3,4.2,3.3,4.2c1.9,0,2.5-1,2.9-1.9h2.1c-0.5,1.6-1.8,3.6-5.1,3.6c-3.8,0-5.4-3.1-5.4-6.2
		c0-3.6,1.8-6.5,5.5-6.5c3.9,0,5.2,3.1,5.2,5.7c0,0.4,0,0.7,0,1L931.9,535.5L931.9,535.5z M938.4,534c0-2-1-3.6-3.1-3.6
		c-2.2,0-3.1,1.5-3.3,3.6H938.4z"/>
</g>
<g class="st3">
	<path d="M952.2,535.5c0,2.5,1.3,4.2,3.3,4.2c1.9,0,2.5-1,2.9-1.9h2.1c-0.5,1.6-1.8,3.6-5.1,3.6c-3.8,0-5.4-3.1-5.4-6.2
		c0-3.6,1.8-6.5,5.5-6.5c3.9,0,5.2,3.1,5.2,5.7c0,0.4,0,0.7,0,1L952.2,535.5L952.2,535.5z M958.7,534c0-2-1-3.6-3.1-3.6
		c-2.2,0-3.1,1.5-3.3,3.6H958.7z"/>
</g>
<g class="st3">
	<path d="M941.8,529h2.1v-3.6h2.1v3.6h2.7v1.7H946v7.1c0,1.2,0.3,1.8,1.4,1.8c0.3,0,0.7,0,1.1-0.1v1.6c-0.5,0.2-1.2,0.2-1.8,0.2
		c-1.9,0-2.7-1-2.7-3v-7.6h-2.1V529H941.8z"/>
	<path d="M963.1,532.3c0-1.7,0-2.7,0-3.3h2.1c0,0.3,0.1,1.3,0.1,2.5c0.6-1.6,2.1-2.7,4.1-2.8v2.1c-2.5,0.1-4.1,1.4-4.1,4.5v5.9h-2.1
		L963.1,532.3L963.1,532.3z"/>
</g>
<g class="st3">
	<path d="M891.6,337.7v-13.3c-0.8,0.6-2.4,1.2-3.3,1.4v-1.7c1.2-0.3,2.8-1.2,3.8-2.3h1.6v15.9H891.6z"/>
	<path d="M897.2,333.2c0-2.2,1.5-3.5,2.9-4.1c-1.4-0.7-2.2-1.8-2.2-3.3c0-2.4,1.7-4.2,5-4.2c3,0,4.8,1.8,4.8,4.2
		c0,1.7-0.9,2.8-2.2,3.3c1.5,0.5,2.8,2,2.8,4.1c0,3-2.4,4.8-5.6,4.8C899.6,338,897.2,336.1,897.2,333.2z M906.1,333.1
		c0-2-1.3-3-3.4-3c-2.3,0-3.4,1.3-3.4,3c0,1.8,1.2,3.1,3.4,3.1C904.7,336.2,906.1,335.1,906.1,333.1z M900,325.8
		c0,1.3,0.9,2.4,2.9,2.4c1.9,0,2.7-0.9,2.7-2.4c0-1.4-0.9-2.5-2.8-2.5C900.8,323.3,900,324.3,900,325.8z"/>
	<path d="M917.2,328.6c0-1.1,0-2.2,0-3.1h2c0,0.4,0.1,1.2,0.1,1.9c0.6-1.1,1.6-2.2,3.5-2.2c1.7,0,2.9,0.9,3.4,2.2
		c0.6-1.2,1.8-2.2,3.9-2.2c2,0,3.8,1.2,3.8,4.5v8h-2.1v-7.8c0-1.4-0.5-2.9-2.4-2.9c-2,0-2.9,1.5-2.9,3.6v7h-2.1V330
		c0-1.6-0.4-3-2.4-3c-1.9,0-2.9,1.6-2.9,3.9v6.7H917v-9H917.2z"/>
	<path d="M937.5,328.6c0-1.1,0-2.2,0-3.1h2c0,0.4,0.1,1.2,0.1,1.9c0.6-1.1,1.6-2.2,3.5-2.2c1.7,0,2.9,0.9,3.4,2.2
		c0.6-1.2,1.8-2.2,3.9-2.2c2,0,3.8,1.2,3.8,4.5v8h-2.1v-7.8c0-1.4-0.5-2.9-2.4-2.9c-2,0-2.9,1.5-2.9,3.6v7h-2.1V330
		c0-1.6-0.4-3-2.4-3c-1.9,0-2.9,1.6-2.9,3.9v6.7h-2.1v-9H937.5z"/>
</g>
<g class="st3">
	<path d="M190.3,400v-0.1c0-2.3,1.5-4.7,4.8-7.1c2.5-1.9,3.2-2.5,3.2-4.3c0-1.6-0.8-2.8-2.7-2.8s-2.8,1-3.1,2.9h-2.1
		c0.3-2.7,2-4.7,5.2-4.7c3.6,0,4.9,2.3,4.9,4.5c0,2.4-1,3.3-3.9,5.6c-2.2,1.7-3.3,2.9-3.7,4.2h8.3l-0.3,1.8H190.3z"/>
</g>
<g class="st3">
	<path d="M203.4,400v-0.1c0-2.3,1.5-4.7,4.8-7.1c2.5-1.9,3.2-2.5,3.2-4.3c0-1.6-0.8-2.8-2.7-2.8s-2.8,1-3.1,2.9h-2.1
		c0.3-2.7,2-4.7,5.2-4.7c3.6,0,4.9,2.3,4.9,4.5c0,2.4-1,3.3-3.9,5.6c-2.2,1.7-3.3,2.9-3.7,4.2h8.3L214,400H203.4z"/>
</g>
<g class="st3">
	<path d="M222.9,400v-4.1h-7.4V394l7.2-9.8h2.3v9.9h2l-0.2,1.8H225v4.1H222.9z M222.9,390.1c0-1.2,0-2.8,0-3.8
		c-0.6,1.2-3.7,5.4-5.4,7.8h5.4V390.1z"/>
	<path d="M235.5,390.9c0-1.1,0-2.2,0-3.1h2c0,0.4,0.1,1.2,0.1,1.9c0.6-1.1,1.6-2.2,3.5-2.2c1.7,0,2.9,0.9,3.4,2.2
		c0.6-1.2,1.8-2.2,3.9-2.2c2,0,3.8,1.2,3.8,4.5v8h-2.1v-7.8c0-1.4-0.5-2.9-2.4-2.9c-2,0-2.9,1.5-2.9,3.6v7h-2.1v-7.7
		c0-1.6-0.4-3-2.4-3c-1.9,0-2.9,1.6-2.9,3.9v6.7h-2.1v-8.9H235.5z"/>
	<path d="M255.8,390.9c0-1.1,0-2.2,0-3.1h2c0,0.4,0.1,1.2,0.1,1.9c0.6-1.1,1.6-2.2,3.5-2.2c1.7,0,2.9,0.9,3.4,2.2
		c0.6-1.2,1.8-2.2,3.9-2.2c2,0,3.8,1.2,3.8,4.5v8h-2.1v-7.8c0-1.4-0.5-2.9-2.4-2.9c-2,0-2.9,1.5-2.9,3.6v7H263v-7.7
		c0-1.6-0.4-3-2.4-3c-1.9,0-2.9,1.6-2.9,3.9v6.7h-2.1v-8.9H255.8z"/>
</g>
<g>
	<rect x="166.5" y="83.1" width="1" height="634"/>
</g>
<g>
	<rect x="163.7" y="82.6" width="6.5" height="1"/>
</g>
<g>
	<rect x="163.7" y="716.5" width="6.5" height="1"/>
</g>
<g class="st3">
	<path class="st4" d="M441,397.6v-6h-24.1c-1.1,0-1.7-0.6-1.7-1.7v-6.1c0-0.8,0.2-1.5,0.9-2.1l24-21.4c0.6-0.6,1.2-0.8,2.1-0.8h6.8
		c1.1,0,1.7,0.6,1.7,1.7v21.4h3.5c1.1,0,1.7,0.6,1.7,1.7v5.7c0,1.1-0.6,1.7-1.7,1.7h-3.5v6c0,1.1-0.6,1.7-1.7,1.7h-6.3
		C441.6,399.3,441,398.7,441,397.6z M441,382.6v-12l-13.6,12H441z"/>
	<path class="st4" d="M460,397.6v-6.5c0-0.9,0.3-1.5,1.1-2l22.4-13.2c2.8-1.6,3.6-2.4,3.6-4c0-2.2-1-2.7-3.7-2.7h-10
		c-2.1,0-3.3,0.4-3.3,3.8v0.2c0,1.1-0.6,1.7-1.7,1.7h-6.6c-1.1,0-1.7-0.3-1.7-0.8v-0.8c0-8.1,3.2-13.7,13.4-13.7h10.3
		c9.5,0,13.4,4.6,13.4,11.5c0,6.8-2.7,8.7-10.6,13.2l-9.6,5.5h18.5c1.1,0,1.7,0.6,1.7,1.7v6.2c0,1.1-0.6,1.7-1.7,1.7H462
		C460.6,399.3,460,398.7,460,397.6z"/>
	<path class="st4" d="M508.3,397.6v-23.5h-6.5c-1.1,0-1.7-0.6-1.7-1.7v-5.1c0-1.1,0.6-1.7,1.7-1.7h1.9c5.1,0,5.2-0.4,5.2-4.8
		c0-0.8,0.6-1.4,1.7-1.4h6.1c1.1,0,1.7,0.6,1.7,1.7v36.4c0,1.1-0.6,1.7-1.7,1.7h-6.6C508.9,399.3,508.3,398.7,508.3,397.6z"/>
	<path class="st4" d="M524,388.3v-0.5c0-4.1,1.4-6.8,3.6-8.4c-2.1-1.5-3.3-4.1-3.3-8v-0.6c0.1-7.3,5-11.3,13.4-11.3H548
		c8.4,0,13.3,4,13.4,11.3v0.6c0,3.9-1.2,6.5-3.3,8c2.2,1.6,3.6,4.3,3.6,8.4v0.5c0,7.2-4.9,11-13.3,11h-11
		C528.9,399.3,524,395.5,524,388.3z M548,389.9c2,0,3.7-0.3,3.7-2.8v-1c0-2.5-1.6-2.8-3.7-2.8h-10.3c-2,0-3.7,0.3-3.7,2.8v1
		c0,2.5,1.9,2.8,3.7,2.8H548z M547.6,375.7c2,0,3.7-0.3,3.7-2.8v-1c0-2.4-1.6-2.8-3.7-2.8h-9.5c-2,0-3.7,0.3-3.7,2.8v1
		c0,2.5,1.9,2.8,3.7,2.8H547.6z"/>
</g>
<g>
	<rect x="415.2" y="409.8" class="st5" width="146.6" height="5.9"/>
</g>
<g>
	<path d="M997.6,632.5h6c4.7,0,7.9,3.2,7.9,8.2c0,4.9-3.1,8.5-7.9,8.5h-5.9V632.5z M999.8,647.3h3.5c3.9,0,5.8-2.8,5.8-6.6
		c0-3.3-1.7-6.3-5.8-6.3h-3.5V647.3z"/>
	<path d="M1015.8,643.5c0,2.5,1.3,4.2,3.3,4.2c1.9,0,2.5-1,2.9-1.9h2.1c-0.5,1.6-1.8,3.6-5.1,3.6c-3.8,0-5.4-3.1-5.4-6.2
		c0-3.6,1.8-6.5,5.5-6.5c3.9,0,5.2,3.1,5.2,5.7c0,0.4,0,0.7,0,1H1015.8z M1022.2,642c0-2-1-3.6-3.1-3.6c-2.2,0-3.1,1.5-3.3,3.6
		H1022.2z"/>
	<path d="M1027.1,654v-14c0-1,0-2,0-3h2c0,0.4,0.1,1.1,0.1,1.9c0.7-1.2,1.9-2.2,4-2.2c2.8,0,4.8,2.4,4.8,6c0,4.4-2.3,6.7-5.3,6.7
		c-2,0-3-0.8-3.6-1.8v6.3H1027.1z M1032.6,638.5c-2.5,0-3.5,1.6-3.5,4.6c0,2.9,0.8,4.6,3.4,4.6c2.2,0,3.4-1.8,3.4-4.8
		C1035.8,640.3,1034.7,638.5,1032.6,638.5z"/>
	<path d="M1039.2,637h2.1v-3.6h2.1v3.6h2.7v1.7h-2.7v7.1c0,1.2,0.3,1.8,1.4,1.8c0.3,0,0.7,0,1.1-0.1v1.6c-0.5,0.2-1.2,0.2-1.8,0.2
		c-1.9,0-2.7-1-2.7-3v-7.6h-2.1V637z"/>
	<path d="M1050.4,631.6v7.2c0.6-1.1,1.7-2.1,3.8-2.1c1.9,0,4.1,1.1,4.1,4.7v7.8h-2.1v-7.4c0-2.1-0.9-3.2-2.6-3.2
		c-2.2,0-3.1,1.4-3.1,4v6.6h-2.1v-17.6H1050.4z"/>
</g>
</svg>
