<svg id="Group_74" data-name="Group 74" xmlns="http://www.w3.org/2000/svg" xmlns:xlink="http://www.w3.org/1999/xlink" width="25.426" height="28.323" viewBox="0 0 25.426 28.323">
  <defs>
    <linearGradient id="linear-gradient" x1="0.808" y1="0.5" x2="-1.573" y2="0.5" gradientUnits="objectBoundingBox">
      <stop offset="0" stop-color="gold"/>
      <stop offset="0.075" stop-color="#fece00"/>
      <stop offset="0.48" stop-color="#fca704"/>
      <stop offset="0.803" stop-color="#fa8e07"/>
      <stop offset="1" stop-color="#fa8608"/>
    </linearGradient>
    <linearGradient id="linear-gradient-2" x1="0.862" y1="0.178" x2="-0.501" y2="1.948" gradientUnits="objectBoundingBox">
      <stop offset="0" stop-color="#e82b36"/>
      <stop offset="1" stop-color="#b4005a"/>
    </linearGradient>
    <linearGradient id="linear-gradient-3" x1="-0.507" y1="-0.956" x2="0.606" y2="0.489" gradientUnits="objectBoundingBox">
      <stop offset="0" stop-color="#2f8e5b"/>
      <stop offset="0.39" stop-color="#4ea157"/>
      <stop offset="0.768" stop-color="#67b054"/>
      <stop offset="1" stop-color="#70b653"/>
    </linearGradient>
  </defs>
  <path id="Path_69" data-name="Path 69" d="M42.2,106.735a2.206,2.206,0,0,0-.509,1.547v24.354a2.2,2.2,0,0,0,.509,1.547l.082.08L55.92,120.621V120.3L42.278,106.656Z" transform="translate(-41.687 -106.298)" fill="#40bff2"/>
  <path id="Path_70" data-name="Path 70" d="M67.006,129.348,62.459,124.8v-.322l4.548-4.548.1.058,5.388,3.062c1.539.874,1.539,2.305,0,3.179l-5.388,3.062Z" transform="translate(-48.226 -110.476)" fill="url(#linear-gradient)"/>
  <path id="Path_71" data-name="Path 71" d="M60.8,131.452,56.154,126.8,42.43,140.525a1.792,1.792,0,0,0,2.289.068l16.086-9.14" transform="translate(-41.921 -112.639)" fill="url(#linear-gradient-2)"/>
  <path id="Path_72" data-name="Path 72" d="M60.8,115.644,44.719,106.5a1.792,1.792,0,0,0-2.289.067L56.154,120.3Z" transform="translate(-41.921 -106.133)" fill="url(#linear-gradient-3)"/>
</svg>
