<svg id="Layer_1" data-name="Layer 1" xmlns="http://www.w3.org/2000/svg" viewBox="0 0 215.59 226.77"><defs><style>.cls-1{fill:#222221;}</style></defs><path class="cls-1" d="M89.27,11.32a2.31,2.31,0,0,1-.81-3.61A36.45,36.45,0,0,1,92,4.32c2.39-2,5.23-3.84,8.38-4.25,2.47-.33,4.93.61,7.29,1.3,3,.89,6,1.85,9,2.93,5.63,2.08,11.36,4,14.92,9.2a9.57,9.57,0,0,1,1.81,4.76c.16,3-1.58,6.3-2.1,9.36s-1,6.22-1.49,9.34C128.73,43.78,127.27,59,127.24,59c3-.59,28.21-8.72,35.09-10.68,4.2-1.2,8.41-3.39,12.85-3a28.21,28.21,0,0,1,12,4.41,159.37,159.37,0,0,1,15.3,10.76c6,4.78,15.62,11.17,12.57,20a43.13,43.13,0,0,1-9.64,15.18c-.09.08,3.14,63.86-22.94,113.15-5.32,10.06-14.89,18.15-26.49,17.85-7.45-.18-10.63-7.86-14.82-14.2a186.07,186.07,0,0,0-17.63-22.91,147.43,147.43,0,0,0-11.22-11.39c8.73,1.07,18.71,3.92,24,5.38,4.32,1.19,8.82,3.41,13.41,2.57,5.28-1,6.86-5.32,8.53-9.78,2.41-6.44,9.87-43.86,11-56,.91-10.35,1.11-19.31,1.63-35.57.11-3.44-3.58-5.19-6.55-5.55-5.57-.67-25.68-.25-39.84,1.46C124.8,80.69,97.64,210.71,0,224.48c-.28-.08,64.77-46.35,86.48-137,0,0-2.72,1.18-12.48,4.23-5.2,1.62-10.32,3.71-15.83,4C51.1,96,44,92.82,38.64,88.17q-5.58-4.87-11-9.87c-1.63-1.49-3.26-3-4.87-4.48-.68-.64-17-19.31-17.48-20.15-.1-.18,38.52,17.21,84.48,12.56,2-13.57,3.73-27.7,4.49-41.4C94.46,20.51,93.56,13.4,89.27,11.32Z"/></svg>