<?xml version="1.0" encoding="utf-8"?>
<!-- Generator: Adobe Illustrator 25.2.3, SVG Export Plug-In . SVG Version: 6.00 Build 0)  -->
<svg version="1.1" id="Layer_1" xmlns="http://www.w3.org/2000/svg" xmlns:xlink="http://www.w3.org/1999/xlink" x="0px" y="0px"
	 viewBox="0 0 223.2 145.4" style="enable-background:new 0 0 223.2 145.4;" xml:space="preserve">
<style type="text/css">
	.st0{fill:#DD463C;}
	.st1{fill:#FFFFFF;}
</style>
<g>
	<g>
		<rect x="72.8" class="st0" width="77.5" height="77.5"/>
	</g>
	<g>
		<path class="st1" d="M107.6,17c-0.3-0.1-0.4-0.5-0.2-0.8c0.2-0.3,0.5-0.5,0.8-0.7c0.5-0.4,1.1-0.8,1.8-0.9
			c0.5-0.1,1.1,0.1,1.6,0.3c0.6,0.2,1.3,0.4,1.9,0.6c1.2,0.4,2.4,0.8,3.2,2c0.2,0.3,0.4,0.7,0.4,1c0,0.6-0.3,1.3-0.4,2
			c-0.1,0.7-0.2,1.3-0.3,2c-0.2,1.5-0.5,4.7-0.5,4.7c0.6-0.1,6-1.9,7.5-2.3c0.9-0.3,1.8-0.7,2.7-0.6c0.9,0.1,1.8,0.5,2.6,0.9
			c1.1,0.7,2.2,1.5,3.3,2.3c1.3,1,3.3,2.4,2.7,4.3c-0.4,1.1-1.3,2.5-2.1,3.2c0,0,0.7,13.6-4.9,24.2c-1.1,2.1-3.2,3.9-5.7,3.8
			c-1.6,0-2.3-1.7-3.2-3c-1.1-1.7-2.4-3.4-3.8-4.9c-0.8-0.8-1.6-1.7-2.4-2.4c1.9,0.2,4,0.8,5.1,1.2c0.9,0.3,1.9,0.7,2.9,0.5
			c1.1-0.2,1.5-1.1,1.8-2.1c0.5-1.4,2.1-9.4,2.3-12c0.2-2.2,0.2-4.1,0.3-7.6c0-0.7-0.8-1.1-1.4-1.2c-1.2-0.1-5.5-0.1-8.5,0.3
			c0.1,0-5.7,27.8-26.6,30.7c-0.1,0,13.8-9.9,18.5-29.3c0,0-0.6,0.3-2.7,0.9c-1.1,0.3-2.2,0.8-3.4,0.8c-1.5,0.1-3-0.6-4.2-1.6
			c-0.8-0.7-1.6-1.4-2.4-2.1c-0.3-0.3-0.7-0.6-1-1c-0.1-0.1-3.6-4.1-3.7-4.3c0,0,8.2,3.7,18.1,2.7c0.4-2.9,0.8-5.9,1-8.8
			C108.7,18.9,108.5,17.4,107.6,17z"/>
	</g>
	<g>
		<g>
			<g>
				<path class="st1" d="M0,125V98c0-0.7,0.4-1,1-1h3.7c0.7,0,1,0.4,1,1v10.9h15.6V98c0-0.7,0.4-1,1-1h3.7c0.7,0,1,0.4,1,1v27
					c0,0.7-0.4,1-1,1h-3.7c-0.7,0-1-0.4-1-1v-11H5.7v11c0,0.7-0.4,1-1,1H1C0.4,126,0,125.6,0,125z"/>
			</g>
			<g>
				<path class="st1" d="M63.6,125.2l-1.9-4.2H45.1l-2,4.2c-0.2,0.5-0.7,0.8-1.2,0.8h-4.2c-0.8,0-1.1-0.5-0.8-1.2L50,97.7
					c0.2-0.5,0.6-0.7,1.2-0.7h4.4c0.6,0,0.9,0.2,1.2,0.7l13.1,27.1c0.3,0.7,0,1.2-0.8,1.2h-4.2C64.3,126,63.9,125.8,63.6,125.2z
					 M59.6,116.3l-6.1-13.4l-6.2,13.4H59.6z"/>
			</g>
			<g>
				<path class="st1" d="M79.6,116v-9c0-6.2,2.9-10,9.8-10h9.5c6.4,0,9.4,3.2,9.7,8.7c0,0.7-0.3,1.1-1,1.1h-3.7c-0.7,0-1-0.4-1-1
					c-0.2-2.7-1.4-3.3-4-3.3h-9.5c-2.8,0-4,0.8-4,4.4v9.4c0,3.5,1.3,4.3,4,4.3h9.5c2.8,0,4-0.8,4-4.3v-1.4h-7.1c-0.7,0-1-0.4-1-1v-3
					c0-0.7,0.4-1,1-1h11.8c0.7,0,1,0.4,1,1v5.2c0,6.1-2.9,10-9.8,10h-9.5C82.6,126,79.6,122.1,79.6,116z"/>
			</g>
			<g>
				<path class="st1" d="M145.2,125.2l-1.9-4.2h-16.6l-2,4.2c-0.2,0.5-0.7,0.8-1.2,0.8h-4.2c-0.8,0-1.1-0.5-0.8-1.2l13.1-27.1
					c0.2-0.5,0.6-0.7,1.2-0.7h4.4c0.6,0,0.9,0.2,1.2,0.7l13.1,27.1c0.3,0.7,0,1.2-0.8,1.2h-4.2C145.8,126,145.4,125.8,145.2,125.2z
					 M141.1,116.3l-6.1-13.4l-6.2,13.4H141.1z"/>
			</g>
			<g>
				<path class="st1" d="M161.2,125V98c0-0.7,0.4-1,1-1h3.7c0.5,0,0.9,0.2,1.3,0.6l16,19.9V98c0-0.7,0.4-1,1-1h3.7c0.7,0,1,0.4,1,1
					v27c0,0.7-0.4,1-1,1h-3.7c-0.5,0-0.9-0.2-1.3-0.6l-16-19.7V125c0,0.7-0.4,1-1,1h-3.7C161.6,126,161.2,125.6,161.2,125z"/>
			</g>
			<g>
				<path class="st1" d="M198.6,125V98c0-0.7,0.4-1,1-1h22.5c0.7,0,1,0.4,1,1v3.4c0,0.7-0.4,1-1,1h-17.9v6.3h11.6c0.7,0,1,0.4,1,1v3
					c0,0.7-0.4,1-1,1h-11.6v6.7h17.9c0.7,0,1,0.4,1,1v3.4c0,0.7-0.4,1-1,1h-22.5C199,126,198.6,125.6,198.6,125z"/>
			</g>
		</g>
		<g>
			<path class="st1" d="M36.4,145.2v-9.3c0-0.1,0.1-0.2,0.2-0.2h0.5c0.1,0,0.2,0.1,0.2,0.2v4.2h2.6l4.5-4.3c0.1-0.1,0.2-0.1,0.3-0.1
				h0.6c0.2,0,0.2,0.1,0.1,0.2l-4.7,4.6l4.7,4.6c0.1,0.1,0.1,0.2-0.1,0.2h-0.6c-0.1,0-0.2,0-0.3-0.1l-4.5-4.3h-2.6v4.2
				c0,0.1-0.1,0.2-0.2,0.2h-0.5C36.5,145.4,36.4,145.3,36.4,145.2z"/>
			<path class="st1" d="M46.7,145.2v-9.3c0-0.1,0.1-0.2,0.2-0.2h7.9c0.1,0,0.2,0.1,0.2,0.2v0.4c0,0.1-0.1,0.2-0.2,0.2h-7.3v3.4h5.1
				c0.1,0,0.2,0.1,0.2,0.2v0.4c0,0.1-0.1,0.2-0.2,0.2h-5.1v3.7h7.3c0.1,0,0.2,0.1,0.2,0.2v0.4c0,0.1-0.1,0.2-0.2,0.2h-7.9
				C46.7,145.4,46.7,145.3,46.7,145.2z"/>
			<path class="st1" d="M60.3,145.2v-2.4l-4.9-6.8c-0.1-0.1,0-0.2,0.1-0.2h0.6c0.1,0,0.2,0,0.3,0.1l4.4,6.1l4.3-6.1
				c0.1-0.1,0.2-0.1,0.3-0.1h0.6c0.2,0,0.2,0.1,0.1,0.2l-4.8,6.8v2.4c0,0.1-0.1,0.2-0.2,0.2h-0.5C60.4,145.4,60.3,145.3,60.3,145.2z
				"/>
			<path class="st1" d="M66.8,145.2v-9.3c0-0.1,0.1-0.2,0.2-0.2h0.5c0.1,0,0.2,0.1,0.2,0.2v8.6h6.9c0.1,0,0.2,0.1,0.2,0.2v0.4
				c0,0.1-0.1,0.2-0.2,0.2h-7.6C66.9,145.4,66.8,145.3,66.8,145.2z"/>
			<path class="st1" d="M75.9,145.2v-9.3c0-0.1,0.1-0.2,0.2-0.2h7.9c0.1,0,0.2,0.1,0.2,0.2v0.4c0,0.1-0.1,0.2-0.2,0.2h-7.3v3.4h5.1
				c0.1,0,0.2,0.1,0.2,0.2v0.4c0,0.1-0.1,0.2-0.2,0.2h-5.1v3.7h7.3c0.1,0,0.2,0.1,0.2,0.2v0.4c0,0.1-0.1,0.2-0.2,0.2h-7.9
				C76,145.4,75.9,145.3,75.9,145.2z"/>
			<path class="st1" d="M85,142.3c0-0.1,0.1-0.2,0.2-0.2h0.5c0.1,0,0.2,0.1,0.2,0.2c0,1.7,0.6,2.2,2.4,2.2h2.6
				c1.9,0,2.5-0.4,2.5-1.8c0-1.3-0.6-1.6-2.3-1.7l-3-0.2c-2.2-0.2-3.1-0.7-3.1-2.5c0-1.8,0.8-2.6,3.4-2.6h2.4c2.4,0,3.3,0.9,3.3,3.1
				c0,0.1-0.1,0.2-0.2,0.2h-0.5c-0.1,0-0.2-0.1-0.2-0.2c0-1.7-0.6-2.2-2.4-2.2h-2.4c-2,0-2.6,0.4-2.6,1.8c0,1.3,0.6,1.5,2.3,1.6
				l3,0.2c2.1,0.2,3.1,0.7,3.1,2.5c0,1.8-0.8,2.7-3.4,2.7h-2.6C85.9,145.4,85,144.5,85,142.3z"/>
			<path class="st1" d="M95.5,142.3c0-0.1,0.1-0.2,0.2-0.2h0.5c0.1,0,0.2,0.1,0.2,0.2c0,1.7,0.6,2.2,2.4,2.2h2.6
				c1.9,0,2.5-0.4,2.5-1.8c0-1.3-0.6-1.6-2.3-1.7l-3-0.2c-2.2-0.2-3.1-0.7-3.1-2.5c0-1.8,0.8-2.6,3.4-2.6h2.4c2.4,0,3.3,0.9,3.3,3.1
				c0,0.1-0.1,0.2-0.2,0.2H104c-0.1,0-0.2-0.1-0.2-0.2c0-1.7-0.6-2.2-2.4-2.2H99c-2,0-2.6,0.4-2.6,1.8c0,1.3,0.6,1.5,2.3,1.6l3,0.2
				c2.1,0.2,3.1,0.7,3.1,2.5c0,1.8-0.8,2.7-3.4,2.7h-2.6C96.4,145.4,95.5,144.5,95.5,142.3z"/>
			<path class="st1" d="M109.8,145.2v-9.3c0-0.1,0.1-0.2,0.2-0.2h5.3c2.4,0,3.3,0.8,3.3,2.6v0.1c0,1.5-0.8,1.9-1.4,2.1
				c0.6,0.2,1.5,0.7,1.5,2.3v0.1c0,1.8-0.9,2.5-3.3,2.5H110C109.9,145.4,109.8,145.3,109.8,145.2z M115.8,140.1
				c1.4,0,1.9-0.5,1.9-1.7v-0.2c0-1.3-0.6-1.7-2.5-1.7h-4.6v3.6H115.8z M115.4,144.5c1.8,0,2.4-0.4,2.4-1.7v-0.2
				c0-1.2-0.6-1.8-2-1.8h-5.2v3.6H115.4z"/>
			<path class="st1" d="M120.2,145.2v-9.3c0-0.1,0.1-0.2,0.2-0.2h0.5c0.1,0,0.2,0.1,0.2,0.2v9.3c0,0.1-0.1,0.2-0.2,0.2h-0.5
				C120.3,145.4,120.2,145.3,120.2,145.2z"/>
			<path class="st1" d="M122.9,145.2v-9.3c0-0.1,0.1-0.2,0.2-0.2h0.5c0.1,0,0.2,0.1,0.2,0.2v4.2h2.6l4.5-4.3
				c0.1-0.1,0.2-0.1,0.3-0.1h0.6c0.2,0,0.2,0.1,0.1,0.2l-4.7,4.6l4.7,4.6c0.1,0.1,0.1,0.2-0.1,0.2h-0.6c-0.1,0-0.2,0-0.3-0.1
				l-4.5-4.3h-2.6v4.2c0,0.1-0.1,0.2-0.2,0.2h-0.5C123,145.4,122.9,145.3,122.9,145.2z"/>
			<path class="st1" d="M133.1,145.2v-9.3c0-0.1,0.1-0.2,0.2-0.2h7.9c0.1,0,0.2,0.1,0.2,0.2v0.4c0,0.1-0.1,0.2-0.2,0.2H134v3.4h5.1
				c0.1,0,0.2,0.1,0.2,0.2v0.4c0,0.1-0.1,0.2-0.2,0.2H134v3.7h7.3c0.1,0,0.2,0.1,0.2,0.2v0.4c0,0.1-0.1,0.2-0.2,0.2h-7.9
				C133.2,145.4,133.1,145.3,133.1,145.2z"/>
			<path class="st1" d="M146.4,145.2v-9.3c0-0.1,0.1-0.2,0.2-0.2h0.5c0.1,0,0.2,0.1,0.2,0.2v8.6h6.9c0.1,0,0.2,0.1,0.2,0.2v0.4
				c0,0.1-0.1,0.2-0.2,0.2h-7.6C146.5,145.4,146.4,145.3,146.4,145.2z"/>
			<path class="st1" d="M155.1,142v-3c0-2.2,0.8-3.4,3.3-3.4h3.4c2.5,0,3.3,1.1,3.3,3.4v3c0,2.2-0.8,3.3-3.3,3.3h-3.4
				C155.9,145.4,155.1,144.2,155.1,142z M161.8,144.5c1.8,0,2.4-0.6,2.4-2.5v-3c0-1.9-0.6-2.5-2.4-2.5h-3.4c-1.8,0-2.4,0.6-2.4,2.5
				v3c0,1.9,0.6,2.5,2.4,2.5H161.8z"/>
			<path class="st1" d="M166.5,142v-3c0-2.2,0.8-3.4,3.3-3.4h3.1c2.5,0,3.3,1.1,3.3,3.4v0.2c0,0.1-0.1,0.2-0.2,0.2h-0.5
				c-0.1,0-0.2-0.1-0.2-0.2V139c0-1.9-0.6-2.5-2.4-2.5h-3.1c-1.8,0-2.4,0.6-2.4,2.5v3c0,1.9,0.6,2.5,2.4,2.5h3.1
				c1.8,0,2.4-0.6,2.4-2.5v-0.3c0-0.1,0.1-0.2,0.2-0.2h0.5c0.1,0,0.2,0.1,0.2,0.2v0.3c0,2.2-0.8,3.3-3.3,3.3h-3.1
				C167.4,145.4,166.5,144.2,166.5,142z"/>
			<path class="st1" d="M177.7,145.2v-9.3c0-0.1,0.1-0.2,0.2-0.2h0.5c0.1,0,0.2,0.1,0.2,0.2v4.2h2.6l4.5-4.3
				c0.1-0.1,0.2-0.1,0.3-0.1h0.6c0.2,0,0.2,0.1,0.1,0.2l-4.7,4.6l4.7,4.6c0.1,0.1,0.1,0.2-0.1,0.2H186c-0.1,0-0.2,0-0.3-0.1
				l-4.5-4.3h-2.6v4.2c0,0.1-0.1,0.2-0.2,0.2h-0.5C177.8,145.4,177.7,145.3,177.7,145.2z"/>
		</g>
	</g>
</g>
</svg>
