<svg id="Group_148" data-name="Group 148" xmlns="http://www.w3.org/2000/svg" width="279.981" height="67.836" viewBox="0 0 279.981 67.836">
  <g id="Group_12" data-name="Group 12">
    <g id="Rectangle_7" data-name="Rectangle 7" fill="#f9423a" stroke="#fff" stroke-width="1">
      <rect width="67.836" height="67.836" stroke="none"></rect>
      <rect x="0.5" y="0.5" width="66.836" height="66.836" fill="none"></rect>
    </g>
    <g id="Group_1" data-name="Group 1" transform="translate(13.765 12.719)">
      <path id="Path_1" data-name="Path 1" d="M252.742,144.582a.432.432,0,0,1-.15-.675,7.049,7.049,0,0,1,.66-.633,3.209,3.209,0,0,1,1.566-.8,3.4,3.4,0,0,1,1.365.245c.564.164,1.125.345,1.677.548a5.2,5.2,0,0,1,2.79,1.719,1.791,1.791,0,0,1,.339.89,8.722,8.722,0,0,1-.393,1.751c-.1.581-.188,1.164-.278,1.745-.2,1.276-.47,4.129-.474,4.129.564-.11,5.274-1.631,6.56-2a6.62,6.62,0,0,1,2.4-.551,5.267,5.267,0,0,1,2.234.824,29.544,29.544,0,0,1,2.861,2.012c1.115.894,2.921,2.087,2.351,3.738a8.066,8.066,0,0,1-1.8,2.839c-.017.016.588,11.938-4.288,21.155a5.685,5.685,0,0,1-4.953,3.338c-1.395-.036-1.988-1.47-2.772-2.655a34.65,34.65,0,0,0-3.3-4.283,27.78,27.78,0,0,0-2.1-2.131,33.456,33.456,0,0,1,4.49,1.007,5.749,5.749,0,0,0,2.507.479c.989-.182,1.283-.995,1.595-1.827a84.026,84.026,0,0,0,2.047-10.468c.171-1.935.207-3.611.3-6.648.021-.644-.668-.971-1.224-1.038a46.641,46.641,0,0,0-7.45.272c.072-.019-5.006,24.292-23.26,26.866a47.25,47.25,0,0,0,16.168-25.618s-.509.22-2.333.79a11.811,11.811,0,0,1-2.959.742,5.354,5.354,0,0,1-3.653-1.4q-1.042-.911-2.064-1.845c-.3-.277-.609-.556-.909-.837-.128-.119-3.184-3.61-3.268-3.766a34.838,34.838,0,0,0,15.794,2.347c.375-2.536.7-5.179.84-7.741C253.714,146.3,253.544,144.972,252.742,144.582Z" transform="translate(-236.053 -142.466)" fill="#fff"></path>
    </g>
    <g id="Group_10" data-name="Group 10" transform="translate(84.724 12.165)">
      <g id="Group_8" data-name="Group 8">
        <g id="Group_2" data-name="Group 2">
          <path id="Path_2" data-name="Path 2" d="M317.161,166.37V142.733a.817.817,0,0,1,.9-.9h3.206a.817.817,0,0,1,.9.9v9.549h13.656v-9.549a.817.817,0,0,1,.9-.9h3.242a.816.816,0,0,1,.9.9V166.37a.816.816,0,0,1-.9.9h-3.242a.817.817,0,0,1-.9-.9v-9.656H322.17v9.656a.817.817,0,0,1-.9.9h-3.206A.817.817,0,0,1,317.161,166.37Z" transform="translate(-317.161 -141.833)" fill="#fff"></path>
        </g>
        <g id="Group_3" data-name="Group 3" transform="translate(32.188)">
          <path id="Path_3" data-name="Path 3" d="M377.449,166.587l-1.694-3.711H361.2l-1.73,3.711a1.147,1.147,0,0,1-1.081.685h-3.639c-.685,0-.973-.432-.685-1.045l11.458-23.746a1.068,1.068,0,0,1,1.046-.648h3.819a1.069,1.069,0,0,1,1.045.648l11.422,23.746c.288.612,0,1.045-.685,1.045H378.53A1.1,1.1,0,0,1,377.449,166.587Zm-3.568-7.819-5.368-11.71-5.441,11.71Z" transform="translate(-353.953 -141.833)" fill="#fff"></path>
        </g>
        <g id="Group_4" data-name="Group 4" transform="translate(69.68)">
          <path id="Path_4" data-name="Path 4" d="M396.807,158.516v-7.891c0-5.4,2.558-8.792,8.54-8.792h8.288c5.621,0,8.215,2.81,8.5,7.638a.788.788,0,0,1-.865.937H418.03a.833.833,0,0,1-.9-.9c-.216-2.342-1.261-2.882-3.5-2.882h-8.288c-2.486,0-3.531.684-3.531,3.819V158.7c0,3.1,1.117,3.783,3.531,3.783h8.288c2.414,0,3.531-.684,3.531-3.783V157.47h-6.2a.816.816,0,0,1-.9-.9v-2.594a.816.816,0,0,1,.9-.9h10.305a.816.816,0,0,1,.9.9v4.54c0,5.369-2.558,8.756-8.54,8.756h-8.288C399.365,167.272,396.807,163.885,396.807,158.516Z" transform="translate(-396.807 -141.833)" fill="#fff"></path>
        </g>
        <g id="Group_5" data-name="Group 5" transform="translate(103.526)">
          <path id="Path_5" data-name="Path 5" d="M458.99,166.587l-1.693-3.711H442.74l-1.73,3.711a1.147,1.147,0,0,1-1.081.685H436.29c-.685,0-.974-.432-.685-1.045l11.458-23.746a1.068,1.068,0,0,1,1.045-.648h3.819a1.067,1.067,0,0,1,1.045.648l11.422,23.746c.289.612,0,1.045-.684,1.045h-3.64A1.1,1.1,0,0,1,458.99,166.587Zm-3.585-7.819-5.368-11.71-5.441,11.71Z" transform="translate(-435.494 -141.833)" fill="#fff"></path>
        </g>
        <g id="Group_6" data-name="Group 6" transform="translate(141.017)">
          <path id="Path_6" data-name="Path 6" d="M478.348,166.37V142.733a.816.816,0,0,1,.9-.9h3.243a1.35,1.35,0,0,1,1.117.541l13.98,17.367V142.733a.816.816,0,0,1,.9-.9H501.7a.817.817,0,0,1,.9.9V166.37a.817.817,0,0,1-.9.9h-3.243a1.348,1.348,0,0,1-1.116-.541l-13.981-17.259v16.9a.816.816,0,0,1-.9.9h-3.207A.816.816,0,0,1,478.348,166.37Z" transform="translate(-478.348 -141.833)" fill="#fff"></path>
        </g>
        <g id="Group_7" data-name="Group 7" transform="translate(173.746)">
          <path id="Path_7" data-name="Path 7" d="M515.758,166.37V142.733a.817.817,0,0,1,.9-.9h19.709a.817.817,0,0,1,.9.9v2.991a.817.817,0,0,1-.9.9H520.731v5.548h10.125a.816.816,0,0,1,.9.9v2.63a.816.816,0,0,1-.9.9H520.731v5.873h15.637a.817.817,0,0,1,.9.9v2.99a.817.817,0,0,1-.9.9H516.659A.817.817,0,0,1,515.758,166.37Z" transform="translate(-515.758 -141.833)" fill="#fff"></path>
        </g>
      </g>
      <g id="Group_9" data-name="Group 9" transform="translate(0.077 33.918)">
        <path id="Path_8" data-name="Path 8" d="M317.249,188.9v-8.12a.172.172,0,0,1,.184-.18h.4a.172.172,0,0,1,.184.18v3.675H320.3l3.919-3.759a.312.312,0,0,1,.233-.1h.564c.159,0,.208.1.086.217l-4.129,4,4.129,4.047c.11.108.073.217-.086.217h-.551a.309.309,0,0,1-.233-.1L320.3,185.2h-2.279v3.7a.172.172,0,0,1-.184.18h-.4A.172.172,0,0,1,317.249,188.9Z" transform="translate(-317.249 -180.602)" fill="#fff"></path>
        <path id="Path_9" data-name="Path 9" d="M327.511,188.9v-8.12a.172.172,0,0,1,.184-.18h6.946a.172.172,0,0,1,.184.18v.385a.172.172,0,0,1-.184.18h-6.358v3.014h4.484a.172.172,0,0,1,.184.18v.373a.172.172,0,0,1-.184.18h-4.484v3.243h6.358a.172.172,0,0,1,.184.179v.385a.172.172,0,0,1-.184.18h-6.946A.172.172,0,0,1,327.511,188.9Z" transform="translate(-318.533 -180.602)" fill="#fff"></path>
        <path id="Path_10" data-name="Path 10" d="M340.583,188.9v-2.114l-4.3-5.969c-.087-.121-.037-.217.11-.217h.5a.272.272,0,0,1,.233.108l3.847,5.332,3.772-5.332a.274.274,0,0,1,.234-.108h.49c.147,0,.2.085.11.217l-4.214,5.957V188.9a.172.172,0,0,1-.184.18h-.416A.172.172,0,0,1,340.583,188.9Z" transform="translate(-319.625 -180.602)" fill="#fff"></path>
        <path id="Path_11" data-name="Path 11" d="M347.7,188.9v-8.12a.172.172,0,0,1,.184-.18h.4a.172.172,0,0,1,.184.18v7.555h6.064a.172.172,0,0,1,.184.179v.385a.172.172,0,0,1-.184.18h-6.652A.172.172,0,0,1,347.7,188.9Z" transform="translate(-321.059 -180.602)" fill="#fff"></path>
        <path id="Path_12" data-name="Path 12" d="M356.771,188.9v-8.12a.172.172,0,0,1,.184-.18H363.9a.172.172,0,0,1,.184.18v.385a.172.172,0,0,1-.184.18h-6.358v3.014h4.483a.172.172,0,0,1,.185.18v.373a.172.172,0,0,1-.185.18h-4.483v3.243H363.9a.172.172,0,0,1,.184.179v.385a.172.172,0,0,1-.184.18h-6.946A.172.172,0,0,1,356.771,188.9Z" transform="translate(-322.194 -180.602)" fill="#fff"></path>
        <path id="Path_13" data-name="Path 13" d="M365.843,186.4a.166.166,0,0,1,.183-.18h.405a.167.167,0,0,1,.184.18c.037,1.49.539,1.934,2.131,1.934h2.279c1.69,0,2.229-.373,2.229-1.586,0-1.129-.563-1.357-2.01-1.465l-2.646-.215c-1.886-.157-2.7-.589-2.7-2.15,0-1.6.724-2.318,3-2.318H371c2.119,0,2.854.781,2.9,2.679a.166.166,0,0,1-.184.18h-.4a.166.166,0,0,1-.184-.18c-.037-1.489-.539-1.934-2.131-1.934h-2.083c-1.715,0-2.241.36-2.241,1.573,0,1.129.539,1.321,2,1.441l2.646.217c1.874.143,2.707.624,2.707,2.173,0,1.6-.723,2.331-3,2.331h-2.279C366.627,189.082,365.892,188.3,365.843,186.4Z" transform="translate(-323.33 -180.602)" fill="#fff"></path>
        <path id="Path_14" data-name="Path 14" d="M376.343,186.4a.166.166,0,0,1,.183-.18h.405a.167.167,0,0,1,.184.18c.037,1.49.539,1.934,2.131,1.934h2.279c1.69,0,2.229-.373,2.229-1.586,0-1.129-.563-1.357-2.01-1.465l-2.646-.215c-1.886-.157-2.7-.589-2.7-2.15,0-1.6.723-2.318,3-2.318h2.1c2.119,0,2.854.781,2.9,2.679a.166.166,0,0,1-.184.18h-.4a.166.166,0,0,1-.184-.18c-.037-1.489-.539-1.934-2.131-1.934h-2.083c-1.715,0-2.241.36-2.241,1.573,0,1.129.539,1.321,2,1.441l2.647.217c1.874.143,2.707.624,2.707,2.173,0,1.6-.723,2.331-3,2.331h-2.279C377.127,189.082,376.392,188.3,376.343,186.4Z" transform="translate(-324.643 -180.602)" fill="#fff"></path>
        <path id="Path_15" data-name="Path 15" d="M390.651,188.9v-8.12a.172.172,0,0,1,.184-.18h4.655c2.07,0,2.915.685,2.915,2.234v.12a1.7,1.7,0,0,1-1.213,1.862,1.83,1.83,0,0,1,1.274,1.97v.108c0,1.537-.821,2.186-2.891,2.186h-4.74A.172.172,0,0,1,390.651,188.9Zm5.268-4.432c1.188,0,1.7-.42,1.7-1.453v-.144c0-1.1-.563-1.525-2.156-1.525h-4.043v3.122Zm-.368,3.868c1.581,0,2.132-.385,2.132-1.478v-.132c0-1.069-.551-1.562-1.752-1.562h-4.507v3.171Z" transform="translate(-326.434 -180.602)" fill="#fff"></path>
        <path id="Path_16" data-name="Path 16" d="M401.094,188.9v-8.12a.172.172,0,0,1,.184-.18h.4a.172.172,0,0,1,.184.18v8.12a.172.172,0,0,1-.184.18h-.4A.172.172,0,0,1,401.094,188.9Z" transform="translate(-327.741 -180.602)" fill="#fff"></path>
        <path id="Path_17" data-name="Path 17" d="M403.74,188.9v-8.12a.172.172,0,0,1,.184-.18h.4a.172.172,0,0,1,.184.18v3.675h2.279l3.919-3.759a.313.313,0,0,1,.233-.1h.564c.159,0,.208.1.086.217l-4.129,4,4.129,4.047c.11.108.073.217-.086.217h-.551a.309.309,0,0,1-.233-.1l-3.933-3.784h-2.279v3.7a.172.172,0,0,1-.184.18h-.4A.172.172,0,0,1,403.74,188.9Z" transform="translate(-328.072 -180.602)" fill="#fff"></path>
        <path id="Path_18" data-name="Path 18" d="M414,188.9v-8.12a.172.172,0,0,1,.184-.18h6.946a.172.172,0,0,1,.185.18v.385a.172.172,0,0,1-.185.18h-6.358v3.014h4.484a.172.172,0,0,1,.184.18v.373a.172.172,0,0,1-.184.18h-4.484v3.243h6.358a.172.172,0,0,1,.185.179v.385a.172.172,0,0,1-.185.18h-6.946A.172.172,0,0,1,414,188.9Z" transform="translate(-329.356 -180.602)" fill="#fff"></path>
        <path id="Path_19" data-name="Path 19" d="M427.26,188.9v-8.12a.172.172,0,0,1,.184-.18h.4a.172.172,0,0,1,.184.18v7.555H434.1a.172.172,0,0,1,.184.179v.385a.172.172,0,0,1-.184.18h-6.652A.172.172,0,0,1,427.26,188.9Z" transform="translate(-331.015 -180.602)" fill="#fff"></path>
        <path id="Path_20" data-name="Path 20" d="M435.912,186.164v-2.631c0-1.933.735-2.931,2.9-2.931h3.014c2.168,0,2.9,1,2.9,2.931v2.631c0,1.921-.736,2.919-2.9,2.919h-3.014C436.647,189.082,435.912,188.085,435.912,186.164Zm5.917,2.174c1.58,0,2.131-.529,2.131-2.163v-2.654c0-1.645-.539-2.173-2.131-2.173h-3.014c-1.58,0-2.131.528-2.131,2.173v2.654c0,1.633.551,2.163,2.131,2.163Z" transform="translate(-332.097 -180.602)" fill="#fff"></path>
        <path id="Path_21" data-name="Path 21" d="M447.391,186.164v-2.631c0-1.933.735-2.931,2.9-2.931h2.732c2.168,0,2.9,1,2.9,2.931v.157a.172.172,0,0,1-.184.179h-.4a.172.172,0,0,1-.184-.179v-.169c0-1.645-.551-2.173-2.131-2.173h-2.732c-1.58,0-2.131.528-2.131,2.173v2.654c0,1.633.551,2.163,2.131,2.163h2.732c1.58,0,2.131-.529,2.131-2.163v-.3a.172.172,0,0,1,.184-.18h.4a.172.172,0,0,1,.184.18v.289c0,1.921-.735,2.919-2.9,2.919h-2.732C448.126,189.082,447.391,188.085,447.391,186.164Z" transform="translate(-333.534 -180.602)" fill="#fff"></path>
        <path id="Path_22" data-name="Path 22" d="M458.591,188.9v-8.12a.172.172,0,0,1,.184-.18h.4a.172.172,0,0,1,.184.18v3.675h2.279l3.92-3.759a.311.311,0,0,1,.233-.1h.563c.159,0,.208.1.086.217l-4.128,4,4.128,4.047c.11.108.073.217-.086.217h-.551a.311.311,0,0,1-.233-.1l-3.933-3.784h-2.279v3.7a.172.172,0,0,1-.184.18h-.4A.172.172,0,0,1,458.591,188.9Z" transform="translate(-334.935 -180.602)" fill="#fff"></path>
      </g>
    </g>
  </g>
</svg>