<?xml version="1.0"?>

<svg version="1.1" id="Livello_1" xmlns="http://www.w3.org/2000/svg" xmlns:xlink="http://www.w3.org/1999/xlink" x="0px" y="0px" viewBox="0 0 1093.4 783.8" style="enable-background:new 0 0 1093.4 783.8;" xml:space="preserve">

<g>
&#x9;<path class="st0" d="M56.9,190.4h0.7c10.8,0,19.5,8.7,19.5,19.5v495c0,10.8-8.7,19.5-19.5,19.5h-0.7c-10.8,0-19.5-8.7-19.5-19.5&#xA;&#x9;&#x9;v-495C37.4,199.2,46.1,190.4,56.9,190.4z"></path>
</g>
<g>
&#x9;<polygon class="st0" points="653.1,356.3 653.1,689 613.4,689 613.4,672.1 624.8,660.8 624.8,648.9 613.4,637.5 613.4,356.3 &#xA;&#x9;&#x9;612.4,340.5 609.5,325 604.5,309.9 597.8,295.6 589.3,282.2 579.3,270 567.7,259.2 554.9,249.8 541,242.2 526.2,236.4 510.9,232.5 &#xA;&#x9;&#x9;495.2,230.5 479.3,230.5 463.7,232.5 448.3,236.4 433.6,242.2 419.7,249.8 406.9,259.2 395.4,270 385.2,282.2 376.7,295.6 &#xA;&#x9;&#x9;370,309.9 365.1,325 362.1,340.5 361.1,356.3 361.1,637.5 349.8,648.9 349.8,660.8 361.1,672.1 361.1,689 321.4,689 321.4,356.3 &#xA;&#x9;&#x9;322.5,337.8 325.6,319.5 330.7,301.6 337.9,284.4 346.9,268.1 357.7,252.9 370,239.1 383.9,226.7 399,215.9 415.4,206.9 &#xA;&#x9;&#x9;432.5,199.9 450.4,194.7 468.7,191.6 487.3,190.5 505.9,191.6 524.2,194.7 542,199.9 559.2,206.9 575.5,215.9 590.7,226.7 &#xA;&#x9;&#x9;604.5,239.1 617,252.9 627.7,268.1 636.7,284.4 643.8,301.6 648.9,319.5 652,337.8 &#x9;"></polygon>
</g>
<g>
&#x9;<polygon class="st0" points="653.1,689 643.9,705 622.6,705 613.4,689 &#x9;"></polygon>
</g>
<g>
&#x9;<rect x="622.6" y="705" class="st0" width="21.3" height="19.8"></rect>
</g>
<g>
&#x9;<polygon class="st0" points="361.1,689 351.9,705 330.7,705 321.4,689 &#x9;"></polygon>
</g>
<g>
&#x9;<rect x="330.7" y="705" class="st0" width="21.3" height="19.8"></rect>
</g>
<g class="st1">
&#x9;<path d="M449.7,777.6v-13.3c-0.8,0.6-2.4,1.2-3.3,1.4V764c1.2-0.3,2.8-1.2,3.8-2.3h1.6v15.9L449.7,777.6L449.7,777.6z"></path>
</g>
<g class="st1">
&#x9;<path d="M462.6,777.6v-4.1h-7.4v-1.9l7.2-9.8h2.3v9.9h2l-0.2,1.8h-1.8v4.1H462.6z M462.6,767.7c0-1.2,0-2.8,0-3.8&#xA;&#x9;&#x9;c-0.6,1.2-3.7,5.4-5.4,7.8h5.4V767.7z"></path>
&#x9;<path d="M468.3,777.6L468.3,777.6c0-2.4,1.5-4.8,4.8-7.2c2.5-1.9,3.2-2.5,3.2-4.3c0-1.6-0.8-2.8-2.7-2.8c-1.9,0-2.8,1-3.1,2.9h-2.1&#xA;&#x9;&#x9;c0.3-2.7,2-4.7,5.2-4.7c3.6,0,4.9,2.3,4.9,4.5c0,2.4-1,3.3-3.9,5.6c-2.2,1.7-3.3,2.9-3.7,4.2h8.3l-0.3,1.8L468.3,777.6L468.3,777.6&#xA;&#x9;&#x9;z"></path>
&#x9;<path d="M487.7,768.5c0-1.1,0-2.2,0-3.1h2c0,0.4,0.1,1.2,0.1,1.9c0.6-1.1,1.6-2.2,3.5-2.2c1.7,0,2.9,0.9,3.4,2.2&#xA;&#x9;&#x9;c0.6-1.2,1.8-2.2,3.9-2.2c2,0,3.8,1.2,3.8,4.5v8h-2.1v-7.8c0-1.4-0.5-2.9-2.4-2.9c-2,0-2.9,1.5-2.9,3.6v7h-2v-7.7&#xA;&#x9;&#x9;c0-1.6-0.4-3-2.4-3c-1.9,0-2.9,1.6-2.9,3.9v6.7h-2.1v-8.9H487.7z"></path>
&#x9;<path d="M508,768.5c0-1.1,0-2.2,0-3.1h2c0,0.4,0.1,1.2,0.1,1.9c0.6-1.1,1.6-2.2,3.5-2.2c1.7,0,2.9,0.9,3.4,2.2&#xA;&#x9;&#x9;c0.6-1.2,1.8-2.2,3.9-2.2c2,0,3.8,1.2,3.8,4.5v8h-2.1v-7.8c0-1.4-0.5-2.9-2.4-2.9c-2,0-2.9,1.5-2.9,3.6v7h-2.1v-7.7&#xA;&#x9;&#x9;c0-1.6-0.4-3-2.4-3c-1.9,0-2.9,1.6-2.9,3.9v6.7H508V768.5z"></path>
</g>
<g class="st1">
&#x9;<path d="M449.7,148.6v-13.3c-0.8,0.6-2.4,1.2-3.3,1.4V135c1.2-0.3,2.8-1.2,3.8-2.3h1.6v15.9L449.7,148.6L449.7,148.6z"></path>
</g>
<g class="st1">
&#x9;<path d="M458,148.6v-13.3c-0.8,0.6-2.4,1.2-3.3,1.4V135c1.2-0.3,2.8-1.2,3.8-2.3h1.6v15.9L458,148.6L458,148.6z"></path>
</g>
<g class="st1">
&#x9;<path d="M473.8,132.8v1.7c-2.8,3.7-5.3,9.4-6.1,14.1h-2.2c0.7-4.5,3.5-10.6,6.1-13.9h-8.1v-1.8h10.3V132.8z"></path>
&#x9;<path d="M482.2,139.5c0-1.1,0-2.2,0-3.1h2c0,0.4,0.1,1.2,0.1,1.9c0.6-1.1,1.6-2.2,3.5-2.2c1.7,0,2.9,0.9,3.4,2.2&#xA;&#x9;&#x9;c0.6-1.2,1.8-2.2,3.9-2.2c2,0,3.8,1.2,3.8,4.5v8h-2.1v-7.8c0-1.4-0.5-2.9-2.4-2.9c-2,0-2.9,1.5-2.9,3.6v7h-2.1v-7.7&#xA;&#x9;&#x9;c0-1.6-0.4-3-2.4-3c-1.9,0-2.9,1.6-2.9,3.9v6.7H482v-8.9H482.2z"></path>
&#x9;<path d="M502.6,139.5c0-1.1,0-2.2,0-3.1h2c0,0.4,0.1,1.2,0.1,1.9c0.6-1.1,1.6-2.2,3.5-2.2c1.7,0,2.9,0.9,3.4,2.2&#xA;&#x9;&#x9;c0.6-1.2,1.8-2.2,3.9-2.2c2,0,3.8,1.2,3.8,4.5v8h-2.1v-7.8c0-1.4-0.5-2.9-2.4-2.9c-2,0-2.9,1.5-2.9,3.6v7h-2.1v-7.7&#xA;&#x9;&#x9;c0-1.6-0.4-3-2.4-3c-1.9,0-2.9,1.6-2.9,3.9v6.7h-2.1v-8.9H502.6z"></path>
</g>
<g class="st1">
&#x9;<path d="M724,664.5c0.3-1.9,1.6-4.1,5-4.1c3.3,0,4.8,2,4.8,4.1c0,1.9-1.1,2.9-2.1,3.3l0,0c1.4,0.5,2.8,1.6,2.8,4c0,2.5-1.6,5-5.5,5&#xA;&#x9;&#x9;c-3.6,0-5.2-2.3-5.4-4.4h2.1c0.3,1.4,1.4,2.6,3.4,2.6c2.3,0,3.2-1.5,3.2-3.2c0-2.1-1.3-3.1-3.4-3.1h-1.1V667h0.9c2.1,0,3-0.8,3-2.4&#xA;&#x9;&#x9;c0-1.4-0.9-2.4-2.7-2.4c-1.9,0-2.6,1-2.9,2.3L724,664.5L724,664.5z"></path>
</g>
<g class="st1">
&#x9;<path d="M744.2,676.6v-4.1h-7.4v-1.9l7.2-9.8h2.3v9.9h2l-0.2,1.8h-1.8v4.1H744.2z M744.2,666.7c0-1.2,0-2.8,0-3.8&#xA;&#x9;&#x9;c-0.6,1.2-3.7,5.4-5.4,7.8h5.4V666.7z"></path>
&#x9;<path d="M756.7,667.5c0-1.1,0-2.2,0-3.1h2c0,0.4,0.1,1.2,0.1,1.9c0.6-1.1,1.6-2.2,3.5-2.2c1.7,0,2.9,0.9,3.4,2.2&#xA;&#x9;&#x9;c0.6-1.2,1.8-2.2,3.9-2.2c2,0,3.8,1.2,3.8,4.5v8h-2.1v-7.8c0-1.4-0.5-2.9-2.4-2.9c-2,0-2.9,1.5-2.9,3.6v7h-2v-7.7&#xA;&#x9;&#x9;c0-1.6-0.4-3-2.4-3c-1.9,0-2.9,1.6-2.9,3.9v6.7h-2.1v-8.9H756.7z"></path>
&#x9;<path d="M777,667.5c0-1.1,0-2.2,0-3.1h2c0,0.4,0.1,1.2,0.1,1.9c0.6-1.1,1.6-2.2,3.5-2.2c1.7,0,2.9,0.9,3.4,2.2&#xA;&#x9;&#x9;c0.6-1.2,1.8-2.2,3.9-2.2c2,0,3.8,1.2,3.8,4.5v8h-2.1v-7.8c0-1.4-0.5-2.9-2.4-2.9c-2,0-2.9,1.5-2.9,3.6v7h-2.1v-7.7&#xA;&#x9;&#x9;c0-1.6-0.4-3-2.4-3c-1.9,0-2.9,1.6-2.9,3.9v6.7H777V667.5z"></path>
</g>
<g class="st1">
&#x9;<path d="M22,765.5c0.3-1.9,1.6-4.1,5-4.1c3.3,0,4.8,2,4.8,4.1c0,1.9-1.1,2.9-2.1,3.3l0,0c1.4,0.5,2.8,1.6,2.8,4c0,2.5-1.6,5-5.5,5&#xA;&#x9;&#x9;c-3.6,0-5.2-2.3-5.4-4.4h2.1c0.3,1.4,1.4,2.6,3.4,2.6c2.3,0,3.2-1.5,3.2-3.2c0-2.1-1.3-3.1-3.4-3.1h-1.1V768h0.9c2.1,0,3-0.8,3-2.4&#xA;&#x9;&#x9;c0-1.4-0.9-2.4-2.7-2.4c-1.9,0-2.6,1-2.9,2.3L22,765.5L22,765.5z"></path>
</g>
<g class="st1">
&#x9;<path d="M42.2,777.6v-4.1h-7.4v-1.9l7.2-9.8h2.3v9.9h2l-0.2,1.8h-1.8v4.1H42.2z M42.2,767.7c0-1.2,0-2.8,0-3.8&#xA;&#x9;&#x9;c-0.6,1.2-3.7,5.4-5.4,7.8h5.4V767.7z"></path>
&#x9;<path d="M54.7,768.5c0-1.1,0-2.2,0-3.1h2c0,0.4,0.1,1.2,0.1,1.9c0.6-1.1,1.6-2.2,3.5-2.2c1.7,0,2.9,0.9,3.4,2.2&#xA;&#x9;&#x9;c0.6-1.2,1.8-2.2,3.9-2.2c2,0,3.8,1.2,3.8,4.5v8h-2.1v-7.8c0-1.4-0.5-2.9-2.4-2.9c-2,0-2.9,1.5-2.9,3.6v7h-2v-7.7&#xA;&#x9;&#x9;c0-1.6-0.4-3-2.4-3c-1.9,0-2.9,1.6-2.9,3.9v6.7h-2.1v-8.9H54.7z"></path>
&#x9;<path d="M75,768.5c0-1.1,0-2.2,0-3.1h2c0,0.4,0.1,1.2,0.1,1.9c0.6-1.1,1.6-2.2,3.5-2.2c1.7,0,2.9,0.9,3.4,2.2&#xA;&#x9;&#x9;c0.6-1.2,1.8-2.2,3.9-2.2c2,0,3.8,1.2,3.8,4.5v8h-2.1v-7.8c0-1.4-0.5-2.9-2.4-2.9c-2,0-2.9,1.5-2.9,3.6v7h-2.1v-7.7&#xA;&#x9;&#x9;c0-1.6-0.4-3-2.4-3c-1.9,0-2.9,1.6-2.9,3.9v6.7H75V768.5z"></path>
</g>
<g class="st1">
&#x9;<path d="M24.7,148.6v-13.3c-0.8,0.6-2.4,1.2-3.3,1.4V135c1.2-0.3,2.8-1.2,3.8-2.3h1.6v15.9L24.7,148.6L24.7,148.6z"></path>
</g>
<g class="st1">
&#x9;<path d="M37.6,148.6v-4.1h-7.4v-1.9l7.2-9.8h2.3v9.9h2l-0.2,1.8h-1.8v4.1H37.6z M37.6,138.7c0-1.2,0-2.8,0-3.8&#xA;&#x9;&#x9;c-0.6,1.2-3.7,5.4-5.4,7.8h5.4V138.7z"></path>
&#x9;<path d="M50.1,139.5c0-1.1,0-2.2,0-3.1h2c0,0.4,0.1,1.2,0.1,1.9c0.6-1.1,1.6-2.2,3.5-2.2c1.7,0,2.9,0.9,3.4,2.2&#xA;&#x9;&#x9;c0.6-1.2,1.8-2.2,3.9-2.2c2,0,3.8,1.2,3.8,4.5v8h-2.1v-7.8c0-1.4-0.5-2.9-2.4-2.9c-2,0-2.9,1.5-2.9,3.6v7h-2.1v-7.7&#xA;&#x9;&#x9;c0-1.6-0.4-3-2.4-3c-1.9,0-2.9,1.6-2.9,3.9v6.7h-2.1v-8.9H50.1z"></path>
&#x9;<path d="M70.4,139.5c0-1.1,0-2.2,0-3.1h2c0,0.4,0.1,1.2,0.1,1.9c0.6-1.1,1.6-2.2,3.5-2.2c1.7,0,2.9,0.9,3.4,2.2&#xA;&#x9;&#x9;c0.6-1.2,1.8-2.2,3.9-2.2c2,0,3.8,1.2,3.8,4.5v8H85v-7.8c0-1.4-0.5-2.9-2.4-2.9c-2,0-2.9,1.5-2.9,3.6v7h-2.1v-7.7&#xA;&#x9;&#x9;c0-1.6-0.4-3-2.4-3c-1.9,0-2.9,1.6-2.9,3.9v6.7h-2.1v-8.9H70.4z"></path>
</g>
<g class="st1">
&#x9;<path d="M147.7,491.6v-13.3c-0.8,0.6-2.4,1.2-3.3,1.4V478c1.2-0.3,2.8-1.2,3.8-2.3h1.6v15.9H147.7z"></path>
&#x9;<path d="M153.3,487.1c0-2.2,1.5-3.5,2.9-4.1c-1.4-0.7-2.2-1.8-2.2-3.3c0-2.4,1.7-4.2,5-4.2c3,0,4.8,1.8,4.8,4.2&#xA;&#x9;&#x9;c0,1.7-0.9,2.8-2.2,3.3c1.5,0.5,2.8,2,2.8,4.1c0,3-2.4,4.8-5.6,4.8C155.7,491.8,153.3,490,153.3,487.1z M162.2,487c0-2-1.3-3-3.4-3&#xA;&#x9;&#x9;c-2.3,0-3.4,1.3-3.4,3c0,1.8,1.2,3.1,3.4,3.1C160.8,490.1,162.2,489,162.2,487z M156.1,479.7c0,1.3,0.9,2.4,2.9,2.4&#xA;&#x9;&#x9;c1.9,0,2.7-0.9,2.7-2.4c0-1.4-0.9-2.5-2.8-2.5C156.9,477.2,156.1,478.2,156.1,479.7z"></path>
</g>
<g class="st1">
&#x9;<path d="M166.5,487.1c0-2.2,1.5-3.5,2.9-4.1c-1.4-0.7-2.2-1.8-2.2-3.3c0-2.4,1.7-4.2,5-4.2c3,0,4.8,1.8,4.8,4.2&#xA;&#x9;&#x9;c0,1.7-0.9,2.8-2.2,3.3c1.5,0.5,2.8,2,2.8,4.1c0,3-2.4,4.8-5.6,4.8C168.9,491.8,166.5,490,166.5,487.1z M175.4,487c0-2-1.3-3-3.4-3&#xA;&#x9;&#x9;c-2.3,0-3.4,1.3-3.4,3c0,1.8,1.2,3.1,3.4,3.1C174.1,490.1,175.4,489,175.4,487z M169.3,479.7c0,1.3,0.9,2.4,2.9,2.4&#xA;&#x9;&#x9;c1.9,0,2.7-0.9,2.7-2.4c0-1.4-0.9-2.5-2.8-2.5C170.1,477.2,169.3,478.2,169.3,479.7z"></path>
</g>
<g class="st1">
&#x9;<path d="M178.6,494.3c1.3-2.7,1.6-4.8,1.7-6.3h2.1c-0.2,2.1-1,4.6-2.1,6.3H178.6z"></path>
&#x9;<path d="M194.8,477.6h-6.6c-0.1,1.3-0.5,3.7-0.7,4.5c0.7-0.7,1.7-1.3,3.3-1.3c2.9,0,4.8,2,4.8,5.3c0,3.1-1.6,5.8-5.4,5.8&#xA;&#x9;&#x9;c-2.8,0-4.8-1.6-5.3-4.2h2.1c0.4,1.4,1.4,2.5,3.2,2.5c2.2,0,3.2-1.5,3.2-3.9c0-2-0.8-3.6-3-3.6c-1.9,0-2.7,0.8-3.2,2.1l-2-0.4&#xA;&#x9;&#x9;c0.5-2.1,1.1-6.6,1.3-8.6h8.7L194.8,477.6z"></path>
&#x9;<path d="M204.6,482.5c0-1.1,0-2.2,0-3.1h2c0,0.4,0.1,1.2,0.1,1.9c0.6-1.1,1.6-2.2,3.5-2.2c1.7,0,2.9,0.9,3.4,2.2&#xA;&#x9;&#x9;c0.6-1.2,1.8-2.2,3.9-2.2c2,0,3.8,1.2,3.8,4.5v8h-2.1v-7.8c0-1.4-0.5-2.9-2.4-2.9c-2,0-2.9,1.5-2.9,3.6v7h-2.1v-7.7&#xA;&#x9;&#x9;c0-1.6-0.4-3-2.4-3c-1.9,0-2.9,1.6-2.9,3.9v6.7h-2.1v-8.9H204.6z"></path>
&#x9;<path d="M224.9,482.5c0-1.1,0-2.2,0-3.1h2c0,0.4,0.1,1.2,0.1,1.9c0.6-1.1,1.6-2.2,3.5-2.2c1.7,0,2.9,0.9,3.4,2.2&#xA;&#x9;&#x9;c0.6-1.2,1.8-2.2,3.9-2.2c2,0,3.8,1.2,3.8,4.5v8h-2.1v-7.8c0-1.4-0.5-2.9-2.4-2.9c-2,0-2.9,1.5-2.9,3.6v7h-2.1v-7.7&#xA;&#x9;&#x9;c0-1.6-0.4-3-2.4-3c-1.9,0-2.9,1.6-2.9,3.9v6.7h-2.1v-8.9H224.9z"></path>
</g>
<g>
&#x9;<rect x="126.8" y="191" width="1" height="533.3"></rect>
</g>
<g>
&#x9;<rect x="124" y="190.5" width="6.5" height="1"></rect>
</g>
<g>
&#x9;<rect x="124" y="723.8" width="6.5" height="1"></rect>
</g>
<g>
&#x9;<rect x="710.8" y="628.9" width="1" height="95.6"></rect>
</g>
<g>
&#x9;<rect x="708" y="628.4" width="6.5" height="1"></rect>
</g>
<g>
&#x9;<rect x="708" y="724" width="6.5" height="1"></rect>
</g>
<g>
&#x9;<rect x="9.5" y="747.2" width="95.6" height="1"></rect>
</g>
<g>
&#x9;<rect x="104.6" y="744.5" width="1" height="6.5"></rect>
</g>
<g>
&#x9;<rect x="9" y="744.5" width="1" height="6.5"></rect>
</g>
<g>
&#x9;<rect x="37.9" y="167.2" width="38.7" height="1"></rect>
</g>
<g>
&#x9;<rect x="76.1" y="164.5" width="1" height="6.5"></rect>
</g>
<g>
&#x9;<rect x="37.4" y="164.5" width="1" height="6.5"></rect>
</g>
<g>
&#x9;<rect x="285.7" y="746.2" width="401.6" height="1"></rect>
</g>
<g>
&#x9;<rect x="686.8" y="743.4" width="1" height="6.5"></rect>
</g>
<g>
&#x9;<rect x="285.2" y="743.4" width="1" height="6.5"></rect>
</g>
<g>
&#x9;<rect x="321.1" y="115.2" width="330.6" height="1"></rect>
</g>
<g>
&#x9;<rect x="651.3" y="112.4" width="1" height="6.5"></rect>
</g>
<g>
&#x9;<rect x="320.6" y="112.4" width="1" height="6.5"></rect>
</g>
<g>
&#x9;<circle class="st0" cx="919.3" cy="384.2" r="19.8"></circle>
</g>
<g>
&#x9;<polyline class="st2" points="320.3,628.8 286,628.8 286,724.8 688.8,724.8 688.8,628.8 653.9,628.8 &#x9;"></polyline>
</g>
<g>
&#x9;<circle class="st2" cx="917.5" cy="676.8" r="48.2"></circle>
</g>
<g>
&#x9;<circle class="st3" cx="917.5" cy="676.8" r="36.8"></circle>
</g>
<g>
&#x9;
&#x9;&#x9;<ellipse transform="matrix(3.327794e-02 -0.9994 0.9994 3.327794e-02 -620.8386 711.7456)" class="st2" cx="57.5" cy="676.8" rx="48.2" ry="48.2"></ellipse>
</g>
<g class="st1">
&#x9;<path d="M986.4,695.1V691H979v-1.9l7.2-9.8h2.3v9.9h2l-0.2,1.8h-1.8v4.1H986.4z M986.4,685.2c0-1.2,0-2.8,0-3.8&#xA;&#x9;&#x9;c-0.6,1.2-3.7,5.4-5.4,7.8h5.4V685.2z"></path>
&#x9;<path d="M998.9,686.1c0-1.1,0-2.2,0-3.1h2c0,0.4,0.1,1.2,0.1,1.9c0.6-1.1,1.6-2.2,3.5-2.2c1.7,0,2.9,0.9,3.4,2.2&#xA;&#x9;&#x9;c0.6-1.2,1.8-2.2,3.9-2.2c2,0,3.8,1.2,3.8,4.5v8h-2.1v-7.8c0-1.4-0.5-2.9-2.4-2.9c-2,0-2.9,1.5-2.9,3.6v7h-2.1v-7.7&#xA;&#x9;&#x9;c0-1.6-0.4-3-2.4-3c-1.9,0-2.9,1.6-2.9,3.9v6.7h-2.1v-8.9H998.9z"></path>
&#x9;<path d="M1019.2,686.1c0-1.1,0-2.2,0-3.1h2c0,0.4,0.1,1.2,0.1,1.9c0.6-1.1,1.6-2.2,3.5-2.2c1.7,0,2.9,0.9,3.4,2.2&#xA;&#x9;&#x9;c0.6-1.2,1.8-2.2,3.9-2.2c2,0,3.8,1.2,3.8,4.5v8h-2.1v-7.8c0-1.4-0.5-2.9-2.4-2.9c-2,0-2.9,1.5-2.9,3.6v7h-2.1v-7.7&#xA;&#x9;&#x9;c0-1.6-0.4-3-2.4-3c-1.9,0-2.9,1.6-2.9,3.9v6.7h-2.1v-8.9H1019.2z"></path>
</g>
<g class="st1">
&#x9;<path d="M888.8,347.1v-13.3c-0.8,0.6-2.4,1.2-3.3,1.4v-1.7c1.2-0.3,2.8-1.2,3.8-2.3h1.6v15.9H888.8z"></path>
</g>
<g class="st1">
&#x9;<path d="M901.7,347.1V343h-7.4v-1.9l7.2-9.8h2.3v9.9h2l-0.2,1.8h-1.8v4.1H901.7z M901.7,337.2c0-1.2,0-2.8,0-3.8&#xA;&#x9;&#x9;c-0.6,1.2-3.7,5.4-5.4,7.8h5.4V337.2z"></path>
&#x9;<path d="M914.2,338.1c0-1.1,0-2.2,0-3.1h2c0,0.4,0.1,1.2,0.1,1.9c0.6-1.1,1.6-2.2,3.5-2.2c1.7,0,2.9,0.9,3.4,2.2&#xA;&#x9;&#x9;c0.6-1.2,1.8-2.2,3.9-2.2c2,0,3.8,1.2,3.8,4.5v8h-2.1v-7.8c0-1.4-0.5-2.9-2.4-2.9c-2,0-2.9,1.5-2.9,3.6v7h-2.1v-7.7&#xA;&#x9;&#x9;c0-1.6-0.4-3-2.4-3c-1.9,0-2.9,1.6-2.9,3.9v6.7H914v-8.9H914.2z"></path>
&#x9;<path d="M934.5,338.1c0-1.1,0-2.2,0-3.1h2c0,0.4,0.1,1.2,0.1,1.9c0.6-1.1,1.6-2.2,3.5-2.2c1.7,0,2.9,0.9,3.4,2.2&#xA;&#x9;&#x9;c0.6-1.2,1.8-2.2,3.9-2.2c2,0,3.8,1.2,3.8,4.5v8h-2.1v-7.8c0-1.4-0.5-2.9-2.4-2.9c-2,0-2.9,1.5-2.9,3.6v7h-2.1v-7.7&#xA;&#x9;&#x9;c0-1.6-0.4-3-2.4-3c-1.9,0-2.9,1.6-2.9,3.9v6.7h-2.1v-8.9H934.5z"></path>
</g>
<g class="st1">
&#x9;<path d="M883.8,597.1c0.3-1.9,1.6-4.1,5-4.1c3.3,0,4.8,2,4.8,4.1c0,1.9-1.1,2.9-2.1,3.3l0,0c1.4,0.5,2.8,1.6,2.8,4&#xA;&#x9;&#x9;c0,2.5-1.6,5-5.5,5c-3.6,0-5.2-2.3-5.4-4.4h2.1c0.3,1.4,1.4,2.6,3.4,2.6c2.3,0,3.2-1.5,3.2-3.2c0-2.1-1.3-3.1-3.4-3.1h-1.1v-1.7&#xA;&#x9;&#x9;h0.9c2.1,0,3-0.8,3-2.4c0-1.4-0.9-2.4-2.7-2.4c-1.9,0-2.6,1-2.9,2.3L883.8,597.1L883.8,597.1z"></path>
</g>
<g class="st1">
&#x9;<path d="M904,609.1V605h-7.4v-1.9l7.2-9.8h2.3v9.9h2l-0.2,1.8H906v4.1H904z M904,599.2c0-1.2,0-2.8,0-3.8c-0.6,1.2-3.7,5.4-5.4,7.8&#xA;&#x9;&#x9;h5.4V599.2z"></path>
&#x9;<path d="M916.5,600.1c0-1.1,0-2.2,0-3.1h2c0,0.4,0.1,1.2,0.1,1.9c0.6-1.1,1.6-2.2,3.5-2.2c1.7,0,2.9,0.9,3.4,2.2&#xA;&#x9;&#x9;c0.6-1.2,1.8-2.2,3.9-2.2c2,0,3.8,1.2,3.8,4.5v8h-2.1v-7.8c0-1.4-0.5-2.9-2.4-2.9c-2,0-2.9,1.5-2.9,3.6v7h-2.1v-7.7&#xA;&#x9;&#x9;c0-1.6-0.4-3-2.4-3c-1.9,0-2.9,1.6-2.9,3.9v6.7h-2.1v-8.9H916.5z"></path>
&#x9;<path d="M936.8,600.1c0-1.1,0-2.2,0-3.1h2c0,0.4,0.1,1.2,0.1,1.9c0.6-1.1,1.6-2.2,3.5-2.2c1.7,0,2.9,0.9,3.4,2.2&#xA;&#x9;&#x9;c0.6-1.2,1.8-2.2,3.9-2.2c2,0,3.8,1.2,3.8,4.5v8h-2.1v-7.8c0-1.4-0.5-2.9-2.4-2.9c-2,0-2.9,1.5-2.9,3.6v7H944v-7.7&#xA;&#x9;&#x9;c0-1.6-0.4-3-2.4-3c-1.9,0-2.9,1.6-2.9,3.9v6.7h-2.1v-8.9H936.8z"></path>
</g>
<g class="st1">
&#x9;<path class="st4" d="M415.3,437.8c-0.1-1.1,0.6-1.7,1.7-1.7h6.6c1.1,0,1.6,0.6,1.7,1.7c0.4,1.9,1.5,2.3,3.2,2.3h12.1&#xA;&#x9;&#x9;c2.1,0,3.7-0.3,3.7-2.8v-1c0-2.5-1.4-2.8-3.7-2.8h-9.1c-1.1,0-1.7-0.6-1.7-1.7v-4.3c0-1.1,0.6-1.7,1.7-1.7h8.7&#xA;&#x9;&#x9;c2.1,0,3.7-0.3,3.7-2.8v-1c0-2.4-1.4-2.8-3.7-2.8h-11.7c-1.7,0-2.8,0.3-3.2,2.1c-0.2,1.1-0.7,1.7-1.7,1.7H417&#xA;&#x9;&#x9;c-1.1,0-1.7-0.6-1.7-1.7c0.6-7.5,4.9-11.7,13.3-11.7h12.1c9,0,13.3,4,13.4,11.3v0.6c0,3.9-1.2,6.5-3.3,8c2.2,1.6,3.6,4.3,3.6,8.4&#xA;&#x9;&#x9;v0.5c0,7.2-4.3,11-13.3,11h-12.5C420.2,449.5,415.8,445.4,415.3,437.8z"></path>
</g>
<g class="st1">
&#x9;<path class="st4" d="M483.8,447.8v-6h-24.1c-1.1,0-1.7-0.6-1.7-1.7V434c0-0.8,0.2-1.5,0.9-2.1l24-21.4c0.6-0.6,1.2-0.8,2.1-0.8h6.8&#xA;&#x9;&#x9;c1.1,0,1.7,0.6,1.7,1.7v21.4h3.5c1.1,0,1.7,0.6,1.7,1.7v5.7c0,1.1-0.6,1.7-1.7,1.7h-3.5v6c0,1.1-0.6,1.7-1.7,1.7h-6.3&#xA;&#x9;&#x9;C484.4,449.5,483.8,448.9,483.8,447.8z M483.8,432.8v-12l-13.6,12H483.8z"></path>
</g>
<g class="st1">
&#x9;<path class="st4" d="M507,447.8v-23.5h-6.5c-1.1,0-1.7-0.6-1.7-1.7v-5.1c0-1.1,0.6-1.7,1.7-1.7h1.9c5.1,0,5.2-0.4,5.2-4.8&#xA;&#x9;&#x9;c0-0.8,0.6-1.4,1.7-1.4h6.1c1.1,0,1.7,0.6,1.7,1.7v36.4c0,1.1-0.6,1.7-1.7,1.7h-6.6C507.6,449.5,507,448.9,507,447.8z"></path>
&#x9;<path class="st4" d="M547.5,447.8v-6h-24.1c-1.1,0-1.7-0.6-1.7-1.7V434c0-0.8,0.2-1.5,0.9-2.1l24-21.4c0.6-0.6,1.2-0.8,2.1-0.8h6.8&#xA;&#x9;&#x9;c1.1,0,1.7,0.6,1.7,1.7v21.4h3.5c1.1,0,1.7,0.6,1.7,1.7v5.7c0,1.1-0.6,1.7-1.7,1.7h-3.5v6c0,1.1-0.6,1.7-1.7,1.7h-6.3&#xA;&#x9;&#x9;C548.1,449.5,547.5,448.9,547.5,447.8z M547.5,432.8v-12l-13.6,12H547.5z"></path>
</g>
<g>
&#x9;<rect x="414.1" y="459.9" class="st5" width="146.6" height="5.9"></rect>
</g>
<g>
&#x9;<path d="M979,649.3h6c4.7,0,7.9,3.2,7.9,8.2c0,4.9-3.1,8.5-7.9,8.5H979V649.3z M981.2,664.1h3.5c3.9,0,5.8-2.8,5.8-6.6&#xA;&#x9;&#x9;c0-3.3-1.7-6.3-5.8-6.3h-3.5V664.1z"></path>
&#x9;<path d="M997.1,660.3c0,2.5,1.3,4.2,3.3,4.2c1.9,0,2.5-1,2.9-1.9h2.1c-0.5,1.6-1.8,3.6-5.1,3.6c-3.8,0-5.4-3.1-5.4-6.2&#xA;&#x9;&#x9;c0-3.6,1.8-6.5,5.5-6.5c3.9,0,5.2,3.1,5.2,5.7c0,0.4,0,0.7,0,1H997.1z M1003.6,658.8c0-2-1-3.6-3.1-3.6c-2.2,0-3.1,1.5-3.3,3.6&#xA;&#x9;&#x9;H1003.6z"></path>
&#x9;<path d="M1008.4,670.8v-14c0-1,0-2,0-3h2c0,0.4,0.1,1.1,0.1,1.9c0.7-1.2,1.9-2.2,4-2.2c2.8,0,4.8,2.4,4.8,6c0,4.4-2.3,6.7-5.3,6.7&#xA;&#x9;&#x9;c-2,0-3-0.8-3.6-1.8v6.3H1008.4z M1013.9,655.4c-2.5,0-3.5,1.6-3.5,4.6c0,2.9,0.8,4.6,3.4,4.6c2.2,0,3.4-1.8,3.4-4.8&#xA;&#x9;&#x9;C1017.2,657.1,1016,655.4,1013.9,655.4z"></path>
&#x9;<path d="M1020.5,653.8h2.1v-3.6h2.1v3.6h2.7v1.7h-2.7v7.1c0,1.2,0.3,1.8,1.4,1.8c0.3,0,0.7,0,1.1-0.1v1.6c-0.5,0.2-1.2,0.2-1.8,0.2&#xA;&#x9;&#x9;c-1.9,0-2.7-1-2.7-3v-7.6h-2.1V653.8z"></path>
&#x9;<path d="M1031.8,648.4v7.2c0.6-1.1,1.7-2.1,3.8-2.1c1.9,0,4.1,1.1,4.1,4.7v7.8h-2.1v-7.4c0-2.1-0.9-3.2-2.6-3.2&#xA;&#x9;&#x9;c-2.2,0-3.1,1.4-3.1,4v6.6h-2.1v-17.6H1031.8z"></path>
</g>
<g>
&#x9;<path d="M872.3,563.6h6c4.7,0,7.9,3.2,7.9,8.2c0,4.9-3.1,8.5-7.9,8.5h-5.9V563.6z M874.5,578.4h3.5c3.9,0,5.8-2.8,5.8-6.6&#xA;&#x9;&#x9;c0-3.3-1.7-6.3-5.8-6.3h-3.5V578.4z"></path>
&#x9;<path d="M889.3,565.3v-2.6h2.1v2.6H889.3z M889.3,568.2h2.1v12.2h-2.1V568.2z"></path>
&#x9;<path d="M903.9,577.7c0,1.1,0.1,2.3,0.2,2.7h-2c-0.1-0.3-0.2-0.8-0.2-1.6c-0.4,0.8-1.4,1.9-3.8,1.9c-2.9,0-4.1-1.9-4.1-3.7&#xA;&#x9;&#x9;c0-2.7,2.1-4,5.8-4h2.1v-1c0-1.1-0.3-2.4-2.6-2.4c-2,0-2.4,1-2.6,1.9h-2c0.2-1.7,1.2-3.6,4.7-3.6c3,0,4.6,1.2,4.6,4V577.7z&#xA;&#x9;&#x9; M901.8,574.4h-2c-2.4,0-3.7,0.7-3.7,2.4c0,1.3,0.9,2.2,2.4,2.2c2.9,0,3.3-2,3.3-4.2V574.4z"></path>
&#x9;<path d="M907.5,571.3c0-1.1,0-2.2,0-3.1h2c0,0.4,0.1,1.2,0.1,1.9c0.6-1.1,1.6-2.2,3.5-2.2c1.7,0,2.9,0.9,3.4,2.2&#xA;&#x9;&#x9;c0.6-1.2,1.8-2.2,3.9-2.2c2,0,3.8,1.2,3.8,4.5v8h-2.1v-7.8c0-1.4-0.5-2.9-2.4-2.9c-2,0-2.9,1.5-2.9,3.6v7h-2.1v-7.7&#xA;&#x9;&#x9;c0-1.6-0.4-3-2.4-3c-1.9,0-2.9,1.6-2.9,3.9v6.7h-2.1V571.3z"></path>
&#x9;<path d="M929.1,574.6c0,2.5,1.3,4.2,3.3,4.2c1.9,0,2.5-1,2.9-1.9h2.1c-0.5,1.6-1.8,3.6-5.1,3.6c-3.8,0-5.4-3.1-5.4-6.2&#xA;&#x9;&#x9;c0-3.6,1.8-6.5,5.5-6.5c3.9,0,5.2,3.1,5.2,5.7c0,0.4,0,0.7,0,1H929.1z M935.5,573.1c0-2-1-3.6-3.1-3.6c-2.2,0-3.1,1.5-3.3,3.6&#xA;&#x9;&#x9;H935.5z"></path>
&#x9;<path d="M938.9,568.2h2.1v-3.6h2.1v3.6h2.7v1.7h-2.7v7.1c0,1.2,0.3,1.8,1.4,1.8c0.3,0,0.7,0,1.1-0.1v1.6c-0.5,0.2-1.2,0.2-1.8,0.2&#xA;&#x9;&#x9;c-1.9,0-2.7-1-2.7-3v-7.6h-2.1V568.2z"></path>
&#x9;<path d="M949.2,574.6c0,2.5,1.3,4.2,3.3,4.2c1.9,0,2.5-1,2.9-1.9h2.1c-0.5,1.6-1.8,3.6-5.1,3.6c-3.8,0-5.4-3.1-5.4-6.2&#xA;&#x9;&#x9;c0-3.6,1.8-6.5,5.5-6.5c3.9,0,5.2,3.1,5.2,5.7c0,0.4,0,0.7,0,1H949.2z M955.7,573.1c0-2-1-3.6-3.1-3.6c-2.2,0-3.1,1.5-3.3,3.6&#xA;&#x9;&#x9;H955.7z"></path>
&#x9;<path d="M960.5,571.5c0-1.7,0-2.7,0-3.3h2.1c0,0.3,0.1,1.3,0.1,2.5c0.6-1.6,2.1-2.7,4.1-2.8v2.1c-2.5,0.1-4.1,1.4-4.1,4.5v5.9h-2.1&#xA;&#x9;&#x9;V571.5z"></path>
</g>
<g>
&#x9;<path d="M872.3,301.9h6c4.7,0,7.9,3.2,7.9,8.2c0,4.9-3.1,8.5-7.9,8.5h-5.9V301.9z M874.5,316.7h3.5c3.9,0,5.8-2.8,5.8-6.6&#xA;&#x9;&#x9;c0-3.3-1.7-6.3-5.8-6.3h-3.5V316.7z"></path>
&#x9;<path d="M889.3,303.6V301h2.1v2.6H889.3z M889.3,306.4h2.1v12.2h-2.1V306.4z"></path>
&#x9;<path d="M903.9,315.9c0,1.1,0.1,2.3,0.2,2.7h-2c-0.1-0.3-0.2-0.8-0.2-1.6c-0.4,0.8-1.4,1.9-3.8,1.9c-2.9,0-4.1-1.9-4.1-3.7&#xA;&#x9;&#x9;c0-2.7,2.1-4,5.8-4h2.1v-1c0-1.1-0.3-2.4-2.6-2.4c-2,0-2.4,1-2.6,1.9h-2c0.2-1.7,1.2-3.6,4.7-3.6c3,0,4.6,1.2,4.6,4V315.9z&#xA;&#x9;&#x9; M901.8,312.6h-2c-2.4,0-3.7,0.7-3.7,2.4c0,1.3,0.9,2.2,2.4,2.2c2.9,0,3.3-2,3.3-4.2V312.6z"></path>
&#x9;<path d="M907.5,309.5c0-1.1,0-2.2,0-3.1h2c0,0.4,0.1,1.2,0.1,1.9c0.6-1.1,1.6-2.2,3.5-2.2c1.7,0,2.9,0.9,3.4,2.2&#xA;&#x9;&#x9;c0.6-1.2,1.8-2.2,3.9-2.2c2,0,3.8,1.2,3.8,4.5v8h-2.1v-7.8c0-1.4-0.5-2.9-2.4-2.9c-2,0-2.9,1.5-2.9,3.6v7h-2.1v-7.7&#xA;&#x9;&#x9;c0-1.6-0.4-3-2.4-3c-1.9,0-2.9,1.6-2.9,3.9v6.7h-2.1V309.5z"></path>
&#x9;<path d="M929.1,312.9c0,2.5,1.3,4.2,3.3,4.2c1.9,0,2.5-1,2.9-1.9h2.1c-0.5,1.6-1.8,3.6-5.1,3.6c-3.8,0-5.4-3.1-5.4-6.2&#xA;&#x9;&#x9;c0-3.6,1.8-6.5,5.5-6.5c3.9,0,5.2,3.1,5.2,5.7c0,0.4,0,0.7,0,1H929.1z M935.5,311.4c0-2-1-3.6-3.1-3.6c-2.2,0-3.1,1.5-3.3,3.6&#xA;&#x9;&#x9;H935.5z"></path>
&#x9;<path d="M938.9,306.4h2.1v-3.6h2.1v3.6h2.7v1.7h-2.7v7.1c0,1.2,0.3,1.8,1.4,1.8c0.3,0,0.7,0,1.1-0.1v1.6c-0.5,0.2-1.2,0.2-1.8,0.2&#xA;&#x9;&#x9;c-1.9,0-2.7-1-2.7-3v-7.6h-2.1V306.4z"></path>
&#x9;<path d="M949.2,312.9c0,2.5,1.3,4.2,3.3,4.2c1.9,0,2.5-1,2.9-1.9h2.1c-0.5,1.6-1.8,3.6-5.1,3.6c-3.8,0-5.4-3.1-5.4-6.2&#xA;&#x9;&#x9;c0-3.6,1.8-6.5,5.5-6.5c3.9,0,5.2,3.1,5.2,5.7c0,0.4,0,0.7,0,1H949.2z M955.7,311.4c0-2-1-3.6-3.1-3.6c-2.2,0-3.1,1.5-3.3,3.6&#xA;&#x9;&#x9;H955.7z"></path>
&#x9;<path d="M960.5,309.7c0-1.7,0-2.7,0-3.3h2.1c0,0.3,0.1,1.3,0.1,2.5c0.6-1.6,2.1-2.7,4.1-2.8v2.1c-2.5,0.1-4.1,1.4-4.1,4.5v5.9h-2.1&#xA;&#x9;&#x9;V309.7z"></path>
</g>
</svg>